<?xml version="1.0" encoding="utf-8"?>
<!-- Generator: Adobe Illustrator 16.0.0, SVG Export Plug-In . SVG Version: 6.00 Build 0)  -->
<!DOCTYPE svg PUBLIC "-//W3C//DTD SVG 1.1//EN" "http://www.w3.org/Graphics/SVG/1.1/DTD/svg11.dtd">
<svg version="1.1" id="Capa_1" xmlns="http://www.w3.org/2000/svg" xmlns:xlink="http://www.w3.org/1999/xlink" x="0px" y="0px"
	 width="108.578px" height="20.992px" viewBox="0 0 108.578 20.992" enable-background="new 0 0 108.578 20.992"
	 xml:space="preserve">
<g opacity="0.5">
	<g>
		<path fill="#8C8C8C" d="M42.261,12.799c-0.555,0.112-1.113,0.167-1.408,0.182c-1.002,0.043-1.189-0.373-1.19-1.836
			c0-1.467,0.19-1.889,1.19-1.846c0.297,0.014,0.937,0.146,1.409,0.193l0.138-0.854c-0.465-0.084-1.08-0.195-1.499-0.211
			c-2.225-0.098-2.76,0.837-2.761,2.717c0,1.876,0.54,2.794,2.763,2.712c0.453-0.015,1.059-0.1,1.533-0.193L42.261,12.799z"/>
		<path fill="#8C8C8C" d="M23.658,6.432c1.62,0.001,2.587,0.674,2.588,1.961c0,0.778-0.27,1.265-0.695,1.551
			c0.515,0.259,0.968,0.723,0.968,1.604c0,1.678-1.181,2.205-2.668,2.205h-3.162l0.001-7.321H23.658z M22.172,7.459L22.17,9.515h1.6
			c0.732,0,0.985-0.3,0.986-1.122c0-0.74-0.248-0.934-1.099-0.933L22.172,7.459z M22.172,10.53v2.195h1.679
			c0.791,0,1.177-0.215,1.177-1.177c0-1.012-0.726-1.02-1.258-1.02L22.172,10.53z"/>
		<path fill="#8C8C8C" d="M27.413,8.728c0.873-0.175,1.477-0.3,2.113-0.3c1.466,0,2.14,0.686,2.14,1.747v3.524
			c-0.895,0.104-1.807,0.21-2.79,0.105c-1.215-0.123-1.96-0.746-1.959-1.725c0-0.888,0.533-1.52,1.928-1.684
			c0.608-0.073,1.346-0.077,1.346-0.077V10.12c0-0.542-0.19-0.789-0.663-0.789c-0.506,0-1.126,0.119-1.955,0.281L27.413,8.728z
			 M30.19,11.195c0,0-0.479-0.008-0.968,0.053c-0.501,0.063-0.781,0.315-0.781,0.83c0,0.385,0.124,0.722,0.663,0.827
			c0.336,0.065,0.677,0.046,1.086,0V11.195z"/>
		<path fill="#8C8C8C" d="M45.215,8.426c1.668,0.001,2.659,0.806,2.659,2.63c0,1.814-0.546,2.792-2.659,2.794
			c-2.09-0.001-2.703-0.857-2.702-2.813c0.001-1.846,0.877-2.608,2.702-2.608V8.426z M46.364,11.056
			c0-1.338-0.446-1.744-1.149-1.744c-0.89,0-1.196,0.301-1.196,1.724c0,1.525,0.202,1.931,1.196,1.931
			C46.19,12.966,46.364,12.485,46.364,11.056"/>
		<path fill="#8C8C8C" d="M53.862,6.439l1.468-0.001v7.283c-0.81,0.094-1.349,0.131-1.938,0.131c-2.479,0-2.982-1.02-2.982-2.829
			c0-1.609,0.558-2.604,2.437-2.604c0.385,0,0.733,0.023,1.018,0.063L53.862,6.439z M53.862,9.376
			c-0.255-0.064-0.636-0.127-1.017-0.075c-0.732,0.101-0.911,0.512-0.911,1.743c0,1.291,0.151,1.847,1.245,1.91
			c0.44,0.027,0.683-0.018,0.683-0.018V9.376z"/>
		<path fill="#8C8C8C" d="M60.827,13.599c-0.804,0.165-1.537,0.258-2.257,0.258c-2.19,0-2.632-1.143-2.632-2.72
			c0-1.989,0.92-2.709,2.501-2.709c1.698,0,2.587,0.801,2.588,2.532l-0.001,0.603H57.48c0.041,0.974,0.248,1.403,1.104,1.403
			c0.497,0,1.552-0.135,2.083-0.249L60.827,13.599z M59.537,10.679c-0.038-1.048-0.33-1.367-1.047-1.367
			c-0.672,0-0.971,0.324-1.01,1.369L59.537,10.679z"/>
		<path fill="#8C8C8C" d="M32.45,8.948c0.85-0.338,1.633-0.529,2.523-0.529c1.901,0,2.544,0.919,2.545,2.607v2.721h-1.475v-2.72
			c0-1.296-0.288-1.727-1.07-1.727c-0.389,0-0.806,0.084-1.067,0.156l-0.002,4.29H32.45V8.948z"/>
		<polygon fill="#8C8C8C" points="0,12.727 8.269,20.992 16.537,12.726 14.615,10.802 8.269,17.148 3.846,12.726 8.27,8.305 
			10.154,10.189 12.077,8.265 8.269,4.459 		"/>
		<polygon fill="#8C8C8C" points="16.537,8.269 8.269,0 0,8.27 1.923,10.191 8.269,3.847 12.69,8.27 8.269,12.69 6.382,10.803 
			4.461,12.728 8.27,16.537 		"/>
		<path fill="#8C8C8C" d="M79.7,12.799c-0.557,0.112-1.114,0.167-1.41,0.182c-1.002,0.043-1.19-0.373-1.19-1.836
			c0-1.467,0.192-1.889,1.19-1.846c0.297,0.014,0.939,0.146,1.411,0.193l0.14-0.853c-0.468-0.085-1.082-0.197-1.502-0.212
			c-2.224-0.099-2.762,0.837-2.764,2.717c0,1.876,0.541,2.795,2.766,2.711c0.45-0.014,1.061-0.098,1.533-0.192L79.7,12.799z"/>
		<path fill="#8C8C8C" d="M75.165,12.799c-0.556,0.112-1.113,0.167-1.41,0.182c-1,0.043-1.19-0.373-1.191-1.836
			c0-1.467,0.191-1.889,1.191-1.846c0.297,0.014,0.938,0.146,1.411,0.193l0.137-0.854c-0.465-0.084-1.078-0.195-1.5-0.211
			c-2.225-0.098-2.761,0.837-2.761,2.717c0,1.876,0.538,2.795,2.761,2.712c0.457-0.016,1.063-0.1,1.535-0.193L75.165,12.799z"/>
		<path fill="#8C8C8C" d="M70.46,9.98c0,2.54-0.674,3.856-3.426,3.855c-2.732,0-3.485-1.145-3.485-3.882
			c0-2.579,1.096-3.598,3.485-3.598C69.213,6.357,70.46,7.437,70.46,9.98 M67.034,12.813c1.628,0,1.908-0.813,1.908-2.833
			c0-1.94-0.731-2.604-1.908-2.604c-1.426,0-1.972,0.527-1.972,2.578C65.063,12.122,65.388,12.813,67.034,12.813z"/>
		<path fill="#8C8C8C" d="M80.559,6.631l1.453-0.001l-0.001,1.103l-1.452-0.001V6.631z M80.56,8.523l1.451,0.001l0.001,5.229
			l-1.452-0.001V8.523z"/>
		<path fill="#8C8C8C" d="M86.195,6.439h1.468l0.001,7.282c-0.833,0.075-1.353,0.132-1.938,0.13
			c-2.48,0.001-2.986-1.019-2.986-2.829c0-1.606,0.556-2.603,2.436-2.604c0.386,0,0.734,0.023,1.018,0.063L86.195,6.439z
			 M86.193,9.378c-0.255-0.065-0.636-0.129-1.015-0.076c-0.735,0.1-0.912,0.51-0.914,1.744c0.003,1.288,0.15,1.854,1.247,1.909
			c0.073,0.005,0.161,0.006,0.262,0.006c0.126-0.001,0.297-0.021,0.421-0.023L86.193,9.378z"/>
		<path fill="#8C8C8C" d="M94.165,8.948c0.847-0.338,1.631-0.529,2.523-0.529c1.899,0.001,2.546,0.919,2.545,2.608v2.721
			l-1.475-0.002v-2.718c0-1.297-0.289-1.729-1.07-1.727c-0.388,0-0.804,0.083-1.069,0.156l-0.001,4.29l-1.453-0.002V8.948z"/>
		<path fill="#8C8C8C" d="M101.948,7.313v1.236h1.162l-0.002,0.884l-1.16,0.002v2.596c0,0.603,0.049,0.825,0.304,0.862
			c0.228,0.031,0.456-0.005,0.854-0.041l0.174,0.87c-0.642,0.124-1.098,0.13-1.319,0.13c-1.29,0-1.513-0.598-1.514-1.821V9.435
			h-0.897V8.549h0.897l0.001-1.237L101.948,7.313z"/>
		<path fill="#8C8C8C" d="M93.272,13.593c-0.803,0.168-1.537,0.259-2.257,0.259c-2.191-0.001-2.63-1.141-2.63-2.716
			c0-1.991,0.92-2.715,2.501-2.715c1.701,0,2.587,0.801,2.587,2.536v0.601l-3.546,0.001c0.042,0.97,0.246,1.401,1.104,1.401
			c0.492,0,1.551-0.133,2.081-0.25L93.272,13.593z M91.981,10.675c-0.037-1.05-0.327-1.369-1.043-1.368
			c-0.674-0.001-0.972,0.326-1.011,1.368H91.981z"/>
		<path fill="#8C8C8C" d="M108.377,13.599c-0.803,0.166-1.537,0.259-2.257,0.259c-2.191-0.002-2.631-1.144-2.631-2.719
			c0-1.99,0.923-2.711,2.501-2.711c1.7,0,2.588,0.801,2.588,2.532v0.604h-3.545c0.039,0.973,0.244,1.402,1.101,1.402
			c0.493,0,1.553-0.136,2.082-0.25L108.377,13.599z M107.087,10.678c-0.04-1.048-0.328-1.366-1.043-1.366
			c-0.678,0-0.972,0.324-1.013,1.369L107.087,10.678z"/>
	</g>
</g>
</svg>
