<?xml version="1.0" encoding="utf-8"?>
<!-- Generator: Adobe Illustrator 16.0.0, SVG Export Plug-In . SVG Version: 6.00 Build 0)  -->
<!DOCTYPE svg PUBLIC "-//W3C//DTD SVG 1.1//EN" "http://www.w3.org/Graphics/SVG/1.1/DTD/svg11.dtd">
<svg version="1.1" id="Capa_1" xmlns="http://www.w3.org/2000/svg" xmlns:xlink="http://www.w3.org/1999/xlink" x="0px" y="0px"
	 width="13.629px" height="15.999px" viewBox="0 0 13.629 15.999" enable-background="new 0 0 13.629 15.999" xml:space="preserve">
<g>
	<path fill="#FFFFFF" d="M8.742,8.256c1.143-0.767,1.927-2.194,1.927-3.83C10.669,1.985,8.958,0,6.85,0
		C4.74,0,3.027,1.985,3.027,4.426c0,1.65,0.712,3.091,1.872,3.852C0.782,9.101,0,12.332,0,12.332v3.667h0.395h0.423h0.071v-3.621
		c0-0.363,0.889-3.293,5.629-3.389V8.988c0,0,0.26,0,0.317,0.001c4.875,0.096,5.905,3.025,5.905,3.389v3.621h0.889v-3.667
		C13.629,12.332,13.024,9.03,8.742,8.256z M3.881,4.426c0-1.971,1.334-3.574,2.973-3.574s2.973,1.604,2.973,3.574
		C9.827,6.397,8.494,8,6.854,8S3.881,6.397,3.881,4.426z"/>
</g>
</svg>
