<?xml version="1.0" encoding="utf-8"?>
<!-- Generator: Adobe Illustrator 16.0.0, SVG Export Plug-In . SVG Version: 6.00 Build 0)  -->
<!DOCTYPE svg PUBLIC "-//W3C//DTD SVG 1.1//EN" "http://www.w3.org/Graphics/SVG/1.1/DTD/svg11.dtd">
<svg version="1.1" id="Capa_1" xmlns="http://www.w3.org/2000/svg" xmlns:xlink="http://www.w3.org/1999/xlink" x="0px" y="0px"
	 width="16px" height="16px" viewBox="0 0 16 16" enable-background="new 0 0 16 16" xml:space="preserve">
<g>
	<g>
		<g>
			<g>
				<path fill="#02C5BA" d="M8,0C3.59,0,0,3.589,0,8s3.59,8,8,8s8-3.589,8-8S12.41,0,8,0L8,0z M8,15.384
					c-4.071,0-7.384-3.312-7.384-7.384c0-4.071,3.313-7.384,7.384-7.384S15.384,3.929,15.384,8
					C15.384,12.072,12.071,15.384,8,15.384L8,15.384z M8,15.384"/>
			</g>
		</g>
	</g>
	<path fill="#02C5BA" d="M10.781,6.064c0,0.2,0.14,0.363,0.339,0.363c0.201,0,0.398-0.163,0.398-0.363
		c0-1.023-1.057-1.869-2.288-2.176V3.354c0-0.2-0.261-0.363-0.461-0.363S8.308,3.154,8.308,3.354v0.427
		c0-0.01-0.168-0.016-0.308-0.016S7.693,3.771,7.693,3.781V3.354c0-0.2-0.261-0.363-0.462-0.363S6.77,3.154,6.77,3.354v0.534
		C5.538,4.195,4.447,5.041,4.447,6.064S5.538,7.934,6.77,8.239v3.121c-0.923-0.254-1.551-0.804-1.551-1.425
		c0-0.2-0.139-0.363-0.339-0.363S4.481,9.735,4.481,9.936c0,1.023,1.057,1.869,2.288,2.176v0.534c0,0.2,0.261,0.363,0.462,0.363
		s0.462-0.163,0.462-0.363v-0.428c0,0.011,0.167,0.017,0.307,0.017s0.308-0.006,0.308-0.017v0.428c0,0.2,0.262,0.363,0.462,0.363
		s0.461-0.163,0.461-0.363v-0.534c1.231-0.307,2.323-1.152,2.323-2.176c0-1.022-1.092-1.87-2.323-2.175V4.64
		C10.153,4.894,10.781,5.443,10.781,6.064L10.781,6.064z M5.172,6.064c0-0.621,0.675-1.171,1.598-1.425v2.849
		C5.847,7.235,5.172,6.685,5.172,6.064L5.172,6.064z M8,11.509c-0.14,0-0.307-0.007-0.307-0.02V8.347
		c0,0.01,0.167,0.017,0.307,0.017s0.308,0.006,0.308,0.018v3.108C8.308,11.502,8.14,11.509,8,11.509L8,11.509z M10.828,9.936
		c0,0.621-0.675,1.171-1.598,1.425v-2.85C10.153,8.765,10.828,9.314,10.828,9.936L10.828,9.936z M8.308,7.653
		c0-0.01-0.168-0.017-0.308-0.017S7.693,7.631,7.693,7.618V4.511C7.693,4.498,7.86,4.492,8,4.492s0.308,0.006,0.308,0.019V7.653z
		 M8.412,7.653"/>
</g>
</svg>
