<?xml version="1.0" encoding="utf-8"?>
<!-- Generator: Adobe Illustrator 16.0.0, SVG Export Plug-In . SVG Version: 6.00 Build 0)  -->
<!DOCTYPE svg PUBLIC "-//W3C//DTD SVG 1.1//EN" "http://www.w3.org/Graphics/SVG/1.1/DTD/svg11.dtd">
<svg version="1.1" id="Capa_1" xmlns="http://www.w3.org/2000/svg" xmlns:xlink="http://www.w3.org/1999/xlink" x="0px" y="0px"
	 width="41.474px" height="41.474px" viewBox="0 0 41.474 41.474" enable-background="new 0 0 41.474 41.474" xml:space="preserve">
<g>
	<g>
		<g>
			<g>
				<g>
					<g>
						<circle fill="#4B6AAD" cx="20.737" cy="20.736" r="20.737"/>
					</g>
				</g>
			</g>
		</g>
	</g>
	<path fill="#FFFFFF" d="M26.597,20.268c-0.001,0-0.002,0-0.003,0l-4.976,0.01L21.6,14.967c-0.001-0.487-0.408-0.872-0.886-0.873
		c-0.487,0.001-0.881,0.411-0.88,0.899l0.018,5.287l-4.978,0.01c-0.487,0.002-0.882,0.383-0.88,0.87
		c0.001,0.487,0.396,0.885,0.883,0.885c0.001,0,0.002,0,0.003,0l4.978-0.015l0.016,4.709c0.002,0.486,0.396,0.934,0.883,0.934
		c0.001,0,0.002,0,0.003,0c0.488,0,0.882-0.448,0.881-0.936l-0.016-4.712l4.976-0.015c0.487-0.002,0.882-0.394,0.88-0.881
		C27.479,20.643,27.083,20.268,26.597,20.268z"/>
</g>
</svg>
