<?xml version="1.0" encoding="utf-8"?>
<!-- Generator: Adobe Illustrator 16.0.0, SVG Export Plug-In . SVG Version: 6.00 Build 0)  -->
<!DOCTYPE svg PUBLIC "-//W3C//DTD SVG 1.1//EN" "http://www.w3.org/Graphics/SVG/1.1/DTD/svg11.dtd">
<svg version="1.1" id="Capa_1" xmlns="http://www.w3.org/2000/svg" xmlns:xlink="http://www.w3.org/1999/xlink" x="0px" y="0px"
	 width="18.897px" height="18.896px" viewBox="0 0 18.897 18.896" enable-background="new 0 0 18.897 18.896" xml:space="preserve">
<g>
	<g>
		<g>
			<path fill="#FFFFFF" d="M9.451,18.896c-2.524,0-4.897-0.982-6.683-2.768C0.983,14.345,0.001,11.972,0,9.448
				c0-2.524,0.983-4.896,2.769-6.681C4.553,0.983,6.927,0,9.451,0s4.897,0.983,6.683,2.768c3.685,3.684,3.685,9.678,0,13.361
				C14.349,17.914,11.976,18.896,9.451,18.896z M9.451,0.883c-2.288,0-4.44,0.891-6.059,2.509S0.884,7.161,0.884,9.448
				s0.891,4.439,2.509,6.057c1.618,1.618,3.771,2.509,6.059,2.509s4.439-0.891,6.058-2.509c3.341-3.34,3.341-8.773,0.001-12.113
				C13.892,1.774,11.739,0.883,9.451,0.883z"/>
		</g>
	</g>
	<g>
		<g>
			<path fill="#FFFFFF" d="M5.87,13.886c-0.166,0-0.331-0.065-0.458-0.197c-0.255-0.264-0.256-0.692-0.003-0.957l7.153-7.504
				c0.253-0.266,0.664-0.267,0.919-0.003c0.254,0.263,0.256,0.692,0.003,0.957L6.33,13.687C6.204,13.819,6.037,13.886,5.87,13.886z"
				/>
		</g>
		<g>
			<path fill="#FFFFFF" d="M13.429,13.861c-0.165,0-0.331-0.066-0.457-0.197L5.77,6.21C5.516,5.947,5.514,5.518,5.767,5.253
				S6.431,4.986,6.685,5.25l7.202,7.455c0.254,0.263,0.256,0.692,0.003,0.957C13.763,13.794,13.596,13.861,13.429,13.861z"/>
		</g>
	</g>
</g>
</svg>
