<?xml version="1.0" encoding="utf-8"?>
<!-- Generator: Adobe Illustrator 16.0.0, SVG Export Plug-In . SVG Version: 6.00 Build 0)  -->
<!DOCTYPE svg PUBLIC "-//W3C//DTD SVG 1.1//EN" "http://www.w3.org/Graphics/SVG/1.1/DTD/svg11.dtd">
<svg version="1.1" id="Capa_1" xmlns="http://www.w3.org/2000/svg" xmlns:xlink="http://www.w3.org/1999/xlink" x="0px" y="0px"
	 width="41.178px" height="41.177px" viewBox="0 0 41.178 41.177" enable-background="new 0 0 41.178 41.177" xml:space="preserve">
<g>
	<g>
		<g>
			<g>
				<path fill="#02C5BA" d="M20.589,41.177C9.236,41.177,0,31.941,0,20.589S9.236,0,20.589,0s20.589,9.236,20.589,20.589
					S31.941,41.177,20.589,41.177z M20.589,0.82c-10.9,0-19.768,8.868-19.768,19.769c0,10.899,8.867,19.768,19.768,19.768
					c10.899,0,19.768-8.868,19.768-19.768C40.356,9.688,31.488,0.82,20.589,0.82z"/>
			</g>
		</g>
		<g>
			<g>
				<path fill="#02C5BA" d="M25.754,18.975l1.642,1.429c0.163,0.149,0.481,0.134,0.626-0.025c0.075-0.081,0.134-0.188,0.129-0.298
					s-0.043-0.213-0.124-0.287l-7.115-6.523c-0.003-0.003-0.008-0.007-0.019-0.012c-0.012-0.006-0.023-0.013-0.035-0.021
					c-0.027-0.019-0.046-0.033-0.067-0.042c-0.019-0.008-0.036-0.011-0.058-0.015l-0.044-0.009c-0.042-0.009-0.07-0.007-0.102-0.001
					l-0.031,0.005c-0.037,0.008-0.056,0.011-0.071,0.018c-0.02,0.008-0.037,0.021-0.057,0.033l-0.016,0.01
					c-0.01,0.007-0.021,0.013-0.031,0.019c-0.01,0.004-0.018,0.009-0.022,0.013l-7.196,6.523c-0.082,0.075-0.129,0.177-0.135,0.287
					c-0.005,0.11,0.033,0.216,0.107,0.298c0.146,0.161,0.363,0.177,0.527,0.029l1.575-1.482v7.116c0,0.766,0.738,1.495,1.504,1.495
					h7.789c0.765,0,1.224-0.729,1.224-1.495V18.975z M21.906,26.765h-2.822v-4.157c0-0.309,0.514-0.46,0.822-0.46h1.459
					c0.309,0,0.541,0.151,0.541,0.46V26.765z M25.101,18.268c-0.001,0.012-0.005,0.024-0.008,0.036l-0.003,7.817
					c0,0.31-0.252,0.644-0.561,0.644h-1.854v-4.157c0-0.767-0.546-1.229-1.311-1.229h-1.46c-0.766,0-1.59,0.463-1.59,1.229v4.157
					h-1.574c-0.31,0-0.734-0.417-0.734-0.726v-7.718c0-0.016,0.082-0.033,0.077-0.053l0.026-0.072l4.502-4.061l4.481,4.095
					L25.101,18.268z"/>
			</g>
		</g>
	</g>
</g>
</svg>
