<?xml version="1.0" encoding="utf-8"?>
<!-- Generator: Adobe Illustrator 16.0.0, SVG Export Plug-In . SVG Version: 6.00 Build 0)  -->
<!DOCTYPE svg PUBLIC "-//W3C//DTD SVG 1.1//EN" "http://www.w3.org/Graphics/SVG/1.1/DTD/svg11.dtd">
<svg version="1.1" id="Capa_1" xmlns="http://www.w3.org/2000/svg" xmlns:xlink="http://www.w3.org/1999/xlink" x="0px" y="0px"
	 width="41.178px" height="41.178px" viewBox="0 0 41.178 41.178" enable-background="new 0 0 41.178 41.178" xml:space="preserve">
<g>
	<g>
		<g>
			<g>
				<path fill="#6184DD" d="M20.59,41.178C9.236,41.178,0,31.941,0,20.589S9.236,0,20.59,0c11.352,0,20.588,9.236,20.588,20.589
					S31.941,41.178,20.59,41.178z M20.59,0.821c-10.9,0-19.769,8.868-19.769,19.768c0,10.9,8.868,19.768,19.769,19.768
					c10.899,0,19.767-8.867,19.767-19.768C40.356,9.689,31.489,0.821,20.59,0.821z"/>
			</g>
		</g>
	</g>
	<g>
		<g>
			<path fill="#6184DD" d="M26.895,28.143h-0.889v-3.676c0-0.326-0.751-2.964-5.14-3.05c-4.364-0.084-5.362,2.694-5.485,3.09
				l-0.059,3.637l-0.806-0.015l0.086-3.785c0.01-0.039,1.062-3.84,6.321-3.737c5.274,0.103,5.962,3.714,5.968,3.75l0.003,0.07
				V28.143z"/>
		</g>
		<g>
			<path fill="#6184DD" d="M20.767,21.293c-1.898,0-3.442-1.786-3.442-3.983c0-2.196,1.544-3.983,3.442-3.983
				s3.442,1.787,3.442,3.983C24.209,19.507,22.665,21.293,20.767,21.293z M20.767,14.093c-1.476,0-2.676,1.443-2.676,3.217
				c0,1.774,1.2,3.217,2.676,3.217s2.676-1.442,2.676-3.217C23.442,15.536,22.242,14.093,20.767,14.093z"/>
		</g>
	</g>
</g>
</svg>
