<?xml version="1.0" encoding="utf-8"?>
<!-- Generator: Adobe Illustrator 16.0.0, SVG Export Plug-In . SVG Version: 6.00 Build 0)  -->
<!DOCTYPE svg PUBLIC "-//W3C//DTD SVG 1.1//EN" "http://www.w3.org/Graphics/SVG/1.1/DTD/svg11.dtd">
<svg version="1.1" id="Capa_1" xmlns="http://www.w3.org/2000/svg" xmlns:xlink="http://www.w3.org/1999/xlink" x="0px" y="0px"
	 width="17.025px" height="16.043px" viewBox="0 0 17.025 16.043" enable-background="new 0 0 17.025 16.043" xml:space="preserve">
<path fill="#5273BD" d="M16.912,8.233L8.79,0.106c-0.141-0.142-0.413-0.142-0.554,0L0.114,8.232c-0.152,0.153-0.152,0.403,0,0.557
	c0.143,0.144,0.392,0.144,0.536,0l1.343-1.365v6.86c0,0.987,0.85,1.759,1.936,1.759h9.135c1.062,0,1.894-0.771,1.894-1.759V7.428
	l1.381,1.36c0.069,0.07,0.173,0.11,0.285,0.11c0.111,0,0.215-0.04,0.284-0.109c0.077-0.077,0.118-0.177,0.118-0.284
	C17.024,8.4,16.984,8.305,16.912,8.233z M6.54,10.091c0-0.581,0.607-1.015,1.15-1.015h1.61c0.581,0,1.11,0.483,1.11,1.015v5.18H6.54
	V10.091z M9.301,8.304H7.69c-1.025,0-1.924,0.835-1.924,1.787v5.18H3.929c-0.571,0-1.162-0.369-1.162-0.986V6.653L8.476,0.94
	l5.71,5.715v7.629c0,0.562-0.482,0.986-1.122,0.986h-1.879v-5.18C11.185,9.122,10.321,8.304,9.301,8.304z"/>
</svg>
