<?xml version="1.0" encoding="utf-8"?>
<!-- Generator: Adobe Illustrator 16.0.0, SVG Export Plug-In . SVG Version: 6.00 Build 0)  -->
<!DOCTYPE svg PUBLIC "-//W3C//DTD SVG 1.1//EN" "http://www.w3.org/Graphics/SVG/1.1/DTD/svg11.dtd">
<svg version="1.1" id="Capa_1" xmlns="http://www.w3.org/2000/svg" xmlns:xlink="http://www.w3.org/1999/xlink" x="0px" y="0px"
	 width="14.815px" height="14.814px" viewBox="0 0 14.815 14.814" enable-background="new 0 0 14.815 14.814" xml:space="preserve">
<g>
	<path fill="#ADCC5C" d="M7.407,0C3.323,0,0,3.323,0,7.407s3.323,7.407,7.407,7.407s7.408-3.323,7.408-7.407S11.491,0,7.407,0
		L7.407,0z M7.407,14.244c-3.77,0-6.837-3.066-6.837-6.837c0-3.77,3.067-6.837,6.837-6.837s6.837,3.067,6.837,6.837
		C14.244,11.178,11.177,14.244,7.407,14.244L7.407,14.244z M7.407,14.244"/>
	<path fill="#ADCC5C" d="M10.898,4.369l-4.38,4.926L3.881,7.186c-0.122-0.1-0.302-0.079-0.4,0.044
		c-0.098,0.122-0.078,0.302,0.045,0.4l2.848,2.278C6.427,9.95,6.489,9.971,6.552,9.971c0.08,0,0.158-0.031,0.215-0.096l4.557-5.127
		c0.106-0.119,0.095-0.298-0.024-0.402C11.183,4.239,11.002,4.251,10.898,4.369L10.898,4.369z M10.898,4.369"/>
</g>
</svg>
