<?xml version="1.0" encoding="utf-8"?>
<!-- Generator: Adobe Illustrator 16.0.0, SVG Export Plug-In . SVG Version: 6.00 Build 0)  -->
<!DOCTYPE svg PUBLIC "-//W3C//DTD SVG 1.1//EN" "http://www.w3.org/Graphics/SVG/1.1/DTD/svg11.dtd">
<svg version="1.1" id="Capa_1" xmlns="http://www.w3.org/2000/svg" xmlns:xlink="http://www.w3.org/1999/xlink" x="0px" y="0px"
	 width="14.815px" height="14.815px" viewBox="0 0 14.815 14.815" enable-background="new 0 0 14.815 14.815" xml:space="preserve">
<g>
	<g>
		<path fill="#FF6F00" d="M7.407,0C3.323,0,0,3.323,0,7.408c0,4.083,3.323,7.407,7.407,7.407s7.408-3.324,7.408-7.407
			C14.815,3.323,11.491,0,7.407,0L7.407,0z M7.407,14.244c-3.77,0-6.837-3.067-6.837-6.836c0-3.771,3.067-6.838,6.837-6.838
			s6.837,3.067,6.837,6.838C14.244,11.177,11.177,14.244,7.407,14.244L7.407,14.244z M7.407,14.244"/>
	</g>
	<g>
		<path fill="#FF6F00" d="M11.534,5.918C10.437,4.822,8.979,4.217,7.43,4.217c-1.551,0-3.009,0.605-4.105,1.701L1.813,7.43
			l1.468,1.468c1.097,1.096,2.554,1.7,4.104,1.7c1.55,0,3.008-0.604,4.104-1.7l1.512-1.511L11.534,5.918z M11.222,8.628
			c-1.025,1.024-2.388,1.589-3.836,1.589c-1.45,0-2.812-0.564-3.836-1.589L2.352,7.43l1.242-1.242
			C4.618,5.162,5.979,4.599,7.43,4.599c1.449,0,2.811,0.563,3.835,1.589l1.199,1.199L11.222,8.628z M11.222,8.628"/>
		<path fill="#FF6F00" d="M7.345,4.973c-1.346,0-2.439,1.096-2.439,2.44s1.094,2.439,2.439,2.439s2.439-1.095,2.439-2.439
			S8.69,4.973,7.345,4.973L7.345,4.973z M7.345,9.472c-1.135,0-2.059-0.924-2.059-2.059s0.924-2.06,2.059-2.06
			s2.059,0.925,2.059,2.06S8.479,9.472,7.345,9.472L7.345,9.472z M7.345,9.472"/>
	</g>
</g>
</svg>
