<?xml version="1.0" encoding="utf-8"?>
<!-- Generator: Adobe Illustrator 16.0.0, SVG Export Plug-In . SVG Version: 6.00 Build 0)  -->
<!DOCTYPE svg PUBLIC "-//W3C//DTD SVG 1.1//EN" "http://www.w3.org/Graphics/SVG/1.1/DTD/svg11.dtd">
<svg version="1.1" id="Capa_1" xmlns="http://www.w3.org/2000/svg" xmlns:xlink="http://www.w3.org/1999/xlink" x="0px" y="0px"
	 width="14.815px" height="14.815px" viewBox="0 0 14.815 14.815" enable-background="new 0 0 14.815 14.815" xml:space="preserve">
<g>
	<g>
		<g>
			<g>
				<path fill="#02C5BA" d="M7.408,0C3.324,0,0,3.323,0,7.408c0,4.084,3.324,7.407,7.408,7.407c4.083,0,7.407-3.323,7.407-7.407
					C14.815,3.323,11.491,0,7.408,0L7.408,0z M7.408,14.245c-3.771,0-6.838-3.067-6.838-6.837c0-3.771,3.067-6.838,6.838-6.838
					c3.77,0,6.837,3.067,6.837,6.838C14.245,11.178,11.178,14.245,7.408,14.245L7.408,14.245z M7.408,14.245"/>
			</g>
		</g>
	</g>
	<path fill="#02C5BA" d="M10.006,5.615c0,0.186,0.117,0.336,0.303,0.336s0.386-0.15,0.386-0.336c0-0.947-0.915-1.73-2.101-2.015
		V3.106c0-0.186-0.259-0.336-0.444-0.336s-0.444,0.15-0.444,0.336v0.396c0-0.01-0.167-0.015-0.296-0.015
		c-0.13,0-0.297,0.005-0.297,0.015V3.106c0-0.186-0.259-0.336-0.444-0.336s-0.444,0.15-0.444,0.336v0.494
		c-1.186,0.284-2.15,1.067-2.15,2.015s0.965,1.731,2.15,2.015v2.889C5.631,10.284,4.811,9.774,4.811,9.2
		c0-0.186-0.117-0.336-0.303-0.336c-0.187,0-0.386,0.15-0.386,0.336c0,0.946,0.916,1.73,2.102,2.015v0.494
		c0,0.186,0.259,0.336,0.444,0.336s0.444-0.15,0.444-0.336v-0.396c0,0.01,0.167,0.016,0.297,0.016c0.129,0,0.296-0.006,0.296-0.016
		v0.396c0,0.186,0.259,0.336,0.444,0.336s0.444-0.15,0.444-0.336v-0.494c1.186-0.284,2.15-1.068,2.15-2.015
		c0-0.947-0.965-1.731-2.15-2.015V4.297C9.187,4.531,10.006,5.041,10.006,5.615L10.006,5.615z M4.745,5.615
		c0-0.574,0.886-1.084,1.479-1.318v2.638C5.631,6.699,4.745,6.19,4.745,5.615L4.745,5.615z M7.409,10.656
		c-0.13,0-0.297-0.006-0.297-0.018v-2.91c0,0.01,0.167,0.016,0.297,0.016c0.129,0,0.296,0.005,0.296,0.017v2.878
		C7.705,10.65,7.538,10.656,7.409,10.656L7.409,10.656z M10.072,9.2c0,0.574-0.886,1.084-1.479,1.318V7.881
		C9.187,8.115,10.072,8.625,10.072,9.2L10.072,9.2z M7.705,7.087c0-0.01-0.167-0.016-0.296-0.016c-0.13,0-0.297-0.006-0.297-0.017
		V4.177c0-0.012,0.167-0.018,0.297-0.018c0.129,0,0.296,0.006,0.296,0.018V7.087z M7.789,7.087"/>
</g>
</svg>
