<?xml version="1.0" encoding="utf-8"?>
<!-- Generator: Adobe Illustrator 16.0.0, SVG Export Plug-In . SVG Version: 6.00 Build 0)  -->
<!DOCTYPE svg PUBLIC "-//W3C//DTD SVG 1.1//EN" "http://www.w3.org/Graphics/SVG/1.1/DTD/svg11.dtd">
<svg version="1.1" id="Capa_1" xmlns="http://www.w3.org/2000/svg" xmlns:xlink="http://www.w3.org/1999/xlink" x="0px" y="0px"
	 width="123.207px" height="103.669px" viewBox="0 0 123.207 103.669" enable-background="new 0 0 123.207 103.669"
	 xml:space="preserve">
<g>
	<g>
		<path fill="#FFFFFF" d="M5.498,87.701c2.952,0,4.712,1.179,4.712,3.433c0,1.361-0.494,2.212-1.267,2.714
			c0.937,0.451,1.76,1.226,1.76,2.771c0,2.929-2.146,3.822-4.857,3.822H0v-12.74H5.498z M2.667,89.479v3.555h3.032
			c1.335,0,1.795-0.507,1.795-1.942c0-1.298-0.446-1.612-1.996-1.612H2.667z M2.667,94.813v3.852h3.179
			c1.442,0,2.142-0.383,2.142-2.066c0-1.77-1.322-1.785-2.288-1.785H2.667z"/>
		<path fill="#FFFFFF" d="M13.194,91.499c1.875-0.196,2.974-0.303,4.133-0.303c2.673,0,4.006,1.203,4.006,3.06v5.54
			c-0.889,0.271-2.779,0.894-5.192,0.894c-2.172,0-3.59-1.108-3.59-2.906c0-1.555,1.029-2.653,3.622-2.861l2.197-0.201v-0.565
			c0-0.948-0.287-1.381-1.15-1.381c-0.922,0-1.854,0.088-3.769,0.278L13.194,91.499z M18.37,96.281l-1.938,0.166
			c-0.938,0.082-1.158,0.436-1.158,1.336c0,0.673,0.255,1.303,0.835,1.35c0.835,0,1.669-0.169,2.262-0.311V96.281z"/>
		<path fill="#FFFFFF" d="M23.407,92.115c1.481-0.589,2.901-0.928,4.523-0.928c3.46,0,4.661,1.611,4.661,4.562v4.692h-2.666V95.75
			c0-2.265-0.551-3.017-1.974-3.017c-0.705,0-1.286,0.147-1.879,0.273v7.435h-2.666V92.115z"/>
		<path fill="#FFFFFF" d="M42.938,100.199c-0.884,0.163-2.319,0.453-3.324,0.49c-4.048,0.146-5.033-1.463-5.033-4.747
			c0-3.282,0.982-4.92,5.03-4.746c0.961,0.036,2.482,0.318,3.324,0.461L42.89,93.02c-0.678-0.04-2.619-0.27-3.368-0.301
			c-1.819-0.08-2.166,0.663-2.166,3.225c0,2.56,0.344,3.287,2.166,3.208c0.677-0.028,2.097-0.326,3.32-0.565L42.938,100.199z"/>
		<path fill="#FFFFFF" d="M45.018,91.499c1.875-0.196,2.913-0.303,4.072-0.303c2.673,0,3.946,1.203,3.946,3.06v5.54
			c-0.89,0.271-2.72,0.894-5.133,0.894c-2.172,0-3.56-1.108-3.56-2.906c0-1.555,1.132-2.653,3.725-2.861l2.301-0.201v-0.565
			c0-0.948-0.376-1.381-1.238-1.381c-0.922,0-1.898,0.088-3.813,0.278L45.018,91.499z M50.369,96.281l-2.026,0.166
			c-0.938,0.082-1.202,0.436-1.202,1.336c0,0.673,0.321,1.303,0.9,1.35c0.836,0,1.735-0.169,2.328-0.311V96.281z"/>
		<path fill="#FFFFFF" d="M55.104,98.762c1.53,0.226,2.248,0.337,2.775,0.337c0.128,0,0.244-0.007,0.358-0.02
			c0.616-0.044,1.076-0.185,1.093-0.905c0.013-0.244-0.049-0.57-0.354-0.817c-0.306-0.242-1.264-0.857-1.978-1.306
			c-1.273-0.769-1.953-1.313-1.953-2.529c0-0.08,0.003-0.161,0.009-0.246c0.063-0.925,1.172-2.102,3.705-2.102
			c1.117,0,1.587,0.037,3.325,0.269l-0.29,1.543c-1.336-0.211-2.084-0.333-2.605-0.333c-0.154,0-0.289,0.011-0.413,0.033
			c-0.652,0.016-0.944,0.313-0.979,0.727c-0.004,0.056-0.006,0.109-0.006,0.161c0,0.457,0.169,0.77,0.772,1.156
			c1.087,0.659,2.098,1.346,2.325,1.524c1.047,0.755,1.183,1.47,1.183,1.93c0,2.079-2.441,2.36-3.703,2.415
			c-0.121,0.005-0.24,0.007-0.36,0.007c-0.831,0-1.691-0.109-3.189-0.316L55.104,98.762z"/>
		<path fill="#FFFFFF" d="M72.835,100.067c-1.464,0.295-3.053,0.622-4.362,0.622c-3.815-0.018-4.794-1.997-4.794-4.752
			c0-3.482,1.847-4.741,4.722-4.741c3.097,0,4.783,1.401,4.783,4.431v0.963H66.49c0.072,1.778,0.582,2.5,2.009,2.5
			c0.9,0,3.078-0.384,4.044-0.586L72.835,100.067z M70.327,95.108c-0.07-1.777-0.646-2.39-1.949-2.39
			c-1.23,0-1.816,0.612-1.889,2.39H70.327z"/>
		<path fill="#FFFFFF" d="M75.243,101.494c1.696,0.402,2.941,0.64,3.935,0.64c1.31,0,1.735-0.548,1.746-1.963
			c-0.478,0.112-1.173,0.258-1.859,0.258c-3.564,0-4.438-1.639-4.438-4.301c0-3.16,1.037-4.921,5.546-4.921
			c1.076,0,2.195,0.087,3.381,0.179v7.763c0,2.711-0.523,4.503-4.407,4.521c-1.459,0-3.01-0.311-4.405-0.694L75.243,101.494z
			 M80.887,92.783c-0.296-0.012-0.623-0.024-0.894-0.024c-0.051,0-0.092,0.001-0.136,0.001c-2.198,0.051-2.458,0.96-2.458,3.335
			c0,2.049,0.326,2.788,1.648,2.788c0.697,0,1.246-0.148,1.839-0.274V92.783z"/>
		<path fill="#FFFFFF" d="M94.813,99.777c-1.481,0.591-2.947,0.931-4.231,0.931c-3.46,0-4.657-1.613-4.657-4.563v-4.888h2.666v4.887
			c0,2.265,0.547,3.017,1.971,3.017c0.497,0,0.992-0.146,1.585-0.27v-7.634h2.667V99.777z"/>
		<path fill="#FFFFFF" d="M96.887,92.115c1.777-0.589,3.096-0.858,4.717-0.858c0.046,0,0.089,0,0.131,0
			c0.368,0,0.64-0.027,1.675,0.113l-0.28,1.531c-0.924-0.133-1.128-0.159-1.478-0.159c-0.707,0-1.506,0.139-1.802,0.265v7.435
			h-2.963V92.115z"/>
		<path fill="#FFFFFF" d="M109.526,91.196c3.039,0,4.842,1.407,4.842,4.594c0,3.173-0.991,4.882-4.842,4.882
			c-3.805,0-4.922-1.495-4.922-4.914C104.604,92.531,106.205,91.196,109.526,91.196L109.526,91.196z M111.621,95.79
			c0-2.336-0.813-3.048-2.095-3.048c-1.618,0-2.176,0.524-2.176,3.016c0,2.661,0.369,3.375,2.176,3.375
			C111.304,99.133,111.621,98.289,111.621,95.79z"/>
		<path fill="#FFFFFF" d="M116.227,98.762c1.53,0.226,2.248,0.337,2.776,0.337c0.127,0,0.243-0.007,0.357-0.02
			c0.616-0.044,1.076-0.185,1.093-0.905c0.013-0.244-0.049-0.57-0.354-0.817c-0.306-0.242-1.264-0.857-1.978-1.306
			c-1.273-0.769-1.953-1.313-1.953-2.529c0-0.08,0.003-0.161,0.009-0.246c0.063-0.925,1.172-2.102,3.705-2.102
			c1.118,0,1.587,0.037,3.325,0.269l-0.29,1.543c-1.336-0.211-2.084-0.333-2.605-0.333c-0.154,0-0.289,0.011-0.413,0.033
			c-0.652,0.016-0.944,0.313-0.979,0.727c-0.005,0.056-0.007,0.109-0.007,0.161c0,0.457,0.169,0.77,0.772,1.156
			c1.087,0.659,2.098,1.346,2.325,1.524c1.047,0.755,1.183,1.47,1.183,1.93c0,2.079-2.44,2.36-3.703,2.415
			c-0.12,0.005-0.24,0.007-0.359,0.007c-0.832,0-1.692-0.109-3.19-0.316L116.227,98.762z"/>
	</g>
	<g>
		<path fill-rule="evenodd" clip-rule="evenodd" fill="#034174" d="M100.121,60.739c0,9-7.296,16.296-16.296,16.296H39.382
			c-9,0-16.296-7.296-16.296-16.296V16.296C23.086,7.297,30.382,0,39.382,0h44.443c9,0,16.296,7.297,16.296,16.296V60.739z"/>
		<g>
			<path fill="#FFFFFF" d="M61.582,21.842c4.84,0,8.807,3.759,9.252,8.6c1.669,0.363,3.329,0.864,4.892,1.457
				c0.013-0.182,0.013-0.396,0.013-0.576c0-7.984-6.338-14.47-14.157-14.47c-7.819,0-14.166,6.485-14.166,14.47
				c0,0.212,0,0.412,0.019,0.625c1.567-0.598,3.227-1.083,4.896-1.464C52.759,25.649,56.74,21.842,61.582,21.842"/>
			<path fill="#FFFFFF" d="M75.196,33.528c-8.515-3.087-18.826-2.998-27.24,0.06c-1.048,0.366-2.056,0.823-2.945,1.277v2.389
				c1.778-0.532,3.667-0.84,5.644-0.84c4.093,0,7.826,1.234,11.006,3.303c3.168-2.068,6.848-3.303,10.938-3.303
				c1.979,0,3.819,0.308,5.597,0.84v-2.42C77.307,34.368,76.261,33.919,75.196,33.528"/>
			<path fill="#FFFFFF" d="M72.58,39.019c-3.268,0-6.336,0.778-9.057,2.159c-0.657,0.352-1.303,0.716-1.917,1.128
				c-0.633-0.412-1.266-0.776-1.949-1.128c-2.724-1.381-5.737-2.159-9.007-2.159c-1.976,0-3.861,0.286-5.639,0.822v3.361
				c0,9.233,7.364,16.759,16.613,16.759c9.235,0,16.571-7.525,16.571-16.759v-3.361C76.418,39.305,74.559,39.019,72.58,39.019z
				 M63.36,54.221h-3.559l0.744-2.859c-0.744-0.379-1.246-1.112-1.246-1.995c0-1.279,1.004-2.282,2.282-2.282
				c1.272,0,2.293,1.023,2.293,2.303c0,0.883-0.515,1.605-1.261,1.988L63.36,54.221z"/>
		</g>
	</g>
</g>
</svg>
