<?xml version="1.0" encoding="utf-8"?>
<!-- Generator: Adobe Illustrator 16.0.0, SVG Export Plug-In . SVG Version: 6.00 Build 0)  -->
<!DOCTYPE svg PUBLIC "-//W3C//DTD SVG 1.1//EN" "http://www.w3.org/Graphics/SVG/1.1/DTD/svg11.dtd">
<svg version="1.1" id="Capa_1" xmlns="http://www.w3.org/2000/svg" xmlns:xlink="http://www.w3.org/1999/xlink" x="0px" y="0px"
	 width="108.92px" height="21.036px" viewBox="0 0 108.92 21.036" enable-background="new 0 0 108.92 21.036" xml:space="preserve">
<g>
	<g>
		<path fill="#FFFFFF" d="M42.349,12.825c-0.555,0.113-1.115,0.167-1.411,0.183c-1.004,0.043-1.192-0.375-1.193-1.841
			c0-1.469,0.191-1.893,1.193-1.849c0.297,0.014,0.938,0.146,1.412,0.193l0.138-0.855c-0.466-0.084-1.082-0.195-1.502-0.211
			c-2.229-0.099-2.766,0.838-2.767,2.722c0,1.88,0.541,2.8,2.769,2.719c0.454-0.016,1.062-0.101,1.537-0.194L42.349,12.825z"/>
		<path fill="#FFFFFF" d="M23.708,6.519c1.624,0,2.592,0.638,2.593,1.928c0,0.78-0.27,1.249-0.697,1.536
			c0.516,0.26,0.969,0.787,0.969,1.67c0,1.682-1.182,2.273-2.673,2.273h-3.169l0.001-7.407H23.708z M22.218,7.448l-0.001,2.033
			h1.602c0.734,0,0.988-0.274,0.989-1.098c0-0.742-0.248-0.936-1.101-0.935L22.218,7.448z M22.108,10.552v2.188H23.9
			c0.793,0,1.179-0.209,1.179-1.174c0-1.014-0.781-1.019-1.315-1.019L22.108,10.552z"/>
		<path fill="#FFFFFF" d="M27.471,8.745c0.875-0.175,1.409-0.3,2.046-0.3c1.469,0,2.073,0.687,2.073,1.75v3.532
			c-0.889,0.104-1.739,0.21-2.725,0.105c-1.217-0.123-1.928-0.747-1.927-1.729c0-0.889,0.478-1.522,1.876-1.687
			c0.61-0.073,1.293-0.077,1.293-0.077v-0.199c0-0.544-0.118-0.791-0.592-0.791c-0.507,0-1.092,0.119-1.923,0.281L27.471,8.745z
			 M30.108,11.219c0,0-0.409-0.008-0.897,0.053c-0.503,0.063-0.747,0.315-0.747,0.832c0,0.386,0.07,0.723,0.61,0.828
			c0.336,0.066,0.737,0.046,1.033,0V11.219z"/>
		<path fill="#FFFFFF" d="M45.218,8.442c1.778,0.001,2.71,0.809,2.71,2.636c0,1.818-0.523,2.798-2.642,2.8
			c-2.094-0.001-2.743-0.858-2.742-2.818c0.001-1.85,0.896-2.614,2.674-2.614V8.442z M46.462,11.079
			c0-1.342-0.448-1.749-1.152-1.749c-0.892,0-1.198,0.302-1.198,1.729c0,1.528,0.202,1.934,1.198,1.934
			C46.287,12.992,46.462,12.511,46.462,11.079"/>
		<path fill="#FFFFFF" d="M54.046,6.452l1.542-0.001v7.3c-0.889,0.093-1.423,0.13-2.013,0.13c-2.484,0-3.025-1.021-3.025-2.835
			c0-1.612,0.542-2.609,2.424-2.609c0.386,0,0.762,0.023,1.046,0.063L54.046,6.452z M54.107,9.396
			c-0.296-0.065-0.703-0.128-1.084-0.075c-0.734,0.101-0.946,0.513-0.946,1.747c0,1.294,0.202,1.851,1.298,1.914
			c0.44,0.026,0.733-0.019,0.733-0.019V9.396z"/>
		<path fill="#FFFFFF" d="M60.955,13.627c-0.806,0.165-1.541,0.259-2.262,0.259c-2.195,0-2.637-1.145-2.637-2.726
			c0-1.994,0.922-2.715,2.506-2.715c1.702,0,2.593,0.786,2.594,2.521l-0.001,0.588h-3.554c0.042,0.89,0.25,1.422,1.106,1.422
			c0.499,0,1.556-0.126,2.087-0.241L60.955,13.627z M59.663,10.701c-0.039-1.051-0.331-1.371-1.05-1.371
			c-0.673,0-0.972,0.325-1.012,1.373L59.663,10.701z"/>
		<path fill="#FFFFFF" d="M32.478,8.967c0.889-0.339,1.615-0.53,2.507-0.53c1.905,0,2.53,0.921,2.53,2.613v2.579h-1.481v-2.578
			c0-1.299-0.245-1.73-1.03-1.73c-0.389,0-0.785,0.012-1.048,0.083l0.02,4.226h-1.498V8.967z"/>
		<polygon fill="#FFFFFF" points="0,12.753 8.286,21.036 16.572,12.752 14.646,10.824 8.286,17.184 3.854,12.752 8.287,8.322 
			10.175,10.21 12.102,8.282 8.286,4.469 		"/>
		<polygon fill="#FFFFFF" points="16.572,8.285 8.286,0 0,8.286 1.926,10.213 8.286,3.854 12.717,8.286 8.286,12.717 6.396,10.825 
			4.47,12.754 8.287,16.571 		"/>
		<path fill="#FFFFFF" d="M79.867,12.825c-0.557,0.113-1.116,0.167-1.412,0.183c-1.005,0.043-1.193-0.375-1.193-1.841
			c0-1.469,0.193-1.893,1.193-1.849c0.297,0.013,0.941,0.146,1.413,0.193l0.141-0.854c-0.469-0.085-1.084-0.197-1.506-0.212
			c-2.228-0.1-2.768,0.838-2.769,2.722c0,1.88,0.542,2.802,2.771,2.718c0.451-0.015,1.062-0.099,1.536-0.193L79.867,12.825z"/>
		<path fill="#FFFFFF" d="M75.323,12.825c-0.557,0.112-1.116,0.167-1.413,0.183c-1.002,0.043-1.193-0.375-1.194-1.841
			c0-1.469,0.191-1.893,1.194-1.849c0.297,0.014,0.939,0.146,1.414,0.193l0.136-0.855c-0.465-0.084-1.08-0.195-1.502-0.211
			c-2.229-0.099-2.767,0.838-2.767,2.722c0,1.88,0.539,2.802,2.766,2.719c0.458-0.017,1.066-0.101,1.539-0.194L75.323,12.825z"/>
		<path fill="#FFFFFF" d="M70.608,10.001c0,2.545-0.675,3.864-3.433,3.864c-2.738,0-3.493-1.147-3.493-3.891
			c0-2.585,1.098-3.605,3.493-3.605C69.358,6.37,70.608,7.451,70.608,10.001 M67.175,12.839c1.631,0,1.912-0.814,1.912-2.839
			c0-1.944-0.733-2.61-1.912-2.609c-1.43,0-1.977,0.529-1.977,2.584C65.199,12.147,65.525,12.839,67.175,12.839z"/>
		<path fill="#FFFFFF" d="M80.773,6.644l1.434-0.001l0.011,1.105l-1.444-0.001V6.644z M80.773,8.541l1.433,0.001l0.011,5.239
			l-1.444-0.001V8.541z"/>
		<path fill="#FFFFFF" d="M86.376,6.519h1.471l0,7.266c-0.834,0.073-1.355,0.114-1.941,0.112c-2.486,0.001-2.993-1.029-2.993-2.843
			c0-1.61,0.557-2.613,2.441-2.613c0.386,0,0.735,0.054,1.019,0.095L86.376,6.519z M86.374,9.397
			c-0.255-0.066-0.637-0.13-1.017-0.076c-0.737,0.1-0.914,0.511-0.915,1.747c0.002,1.291,0.15,1.859,1.249,1.914
			c0.073,0.004,0.162,0.005,0.262,0.005c0.126-0.001,0.298-0.02,0.422-0.023L86.374,9.397z"/>
		<path fill="#FFFFFF" d="M94.402,8.967c0.889-0.339,1.612-0.53,2.507-0.53c1.903,0,2.529,0.921,2.529,2.614v2.726l-1.481-0.002
			v-2.723c0-1.3-0.287-1.732-1.069-1.73c-0.389,0-0.804,0.084-1.07,0.155l0.02,4.3l-1.436-0.002V8.967z"/>
		<path fill="#FFFFFF" d="M102.105,7.327v1.265h1.222l-0.031,0.874l-1.191-0.012v2.601c0,0.604,0.077,0.828,0.333,0.864
			c0.228,0.032,0.471-0.005,0.87-0.041l0.181,0.873c-0.643,0.124-1.113,0.129-1.335,0.129c-1.293,0-1.53-0.599-1.53-1.825V9.481
			h-0.889v-0.89h0.922l-0.028-1.253L102.105,7.327z"/>
		<path fill="#FFFFFF" d="M93.469,13.621c-0.805,0.168-1.541,0.259-2.262,0.259c-2.196-0.001-2.636-1.143-2.636-2.722
			c0-1.994,0.992-2.72,2.577-2.72c1.705,0,2.662,0.802,2.662,2.541v0.602l-3.623,0.001c0.042,0.972,0.211,1.404,1.072,1.404
			c0.493,0,1.537-0.133,2.068-0.25L93.469,13.621z M92.175,10.666c-0.037-0.889-0.328-1.372-1.045-1.37
			c-0.676-0.001-0.975,0.481-1.013,1.37H92.175z"/>
		<path fill="#FFFFFF" d="M108.604,13.627c-0.804,0.166-1.54,0.259-2.261,0.259c-2.197-0.001-2.637-1.145-2.637-2.724
			c0-1.995,0.982-2.717,2.563-2.717c1.704,0,2.65,0.802,2.65,2.538v0.571h-3.665c0.038,0.89,0.244,1.422,1.103,1.422
			c0.494,0,1.556-0.128,2.086-0.242L108.604,13.627z M107.312,10.7c-0.039-1.051-0.328-1.37-1.045-1.37
			c-0.68,0-0.974,0.325-1.014,1.373L107.312,10.7z"/>
	</g>
</g>
</svg>
