<?xml version="1.0" encoding="utf-8"?>
<!-- Generator: Adobe Illustrator 16.0.0, SVG Export Plug-In . SVG Version: 6.00 Build 0)  -->
<!DOCTYPE svg PUBLIC "-//W3C//DTD SVG 1.1//EN" "http://www.w3.org/Graphics/SVG/1.1/DTD/svg11.dtd">
<svg version="1.1" id="Capa_1" xmlns="http://www.w3.org/2000/svg" xmlns:xlink="http://www.w3.org/1999/xlink" x="0px" y="0px"
	 width="12.74px" height="16.592px" viewBox="0 0 12.74 16.592" enable-background="new 0 0 12.74 16.592" xml:space="preserve">
<path fill="#FFFFFF" d="M10.073,5.333V3.184c0-1.8-1.42-3.184-3.22-3.184H5.668C3.868,0,2.37,1.384,2.37,3.184v2.149H0v8.813
	c0,1.309,1.1,2.445,2.409,2.445h8c1.309,0,2.331-1.136,2.331-2.445V5.333H10.073z M3.259,3.341c0-1.396,1.171-2.453,2.567-2.453
	h0.869c1.396,0,2.489,1.057,2.489,2.453v1.992H3.259V3.341z M11.852,13.473c0,1.142-0.811,2.23-1.952,2.23h-6.98
	c-1.143,0-2.03-1.088-2.03-2.23v-7.25h10.963V13.473z"/>
</svg>
