<?xml version="1.0" encoding="utf-8"?>
<!-- Generator: Adobe Illustrator 16.0.0, SVG Export Plug-In . SVG Version: 6.00 Build 0)  -->
<!DOCTYPE svg PUBLIC "-//W3C//DTD SVG 1.1//EN" "http://www.w3.org/Graphics/SVG/1.1/DTD/svg11.dtd">
<svg version="1.1" id="Capa_1" xmlns="http://www.w3.org/2000/svg" xmlns:xlink="http://www.w3.org/1999/xlink" x="0px" y="0px"
	 width="16px" height="16.001px" viewBox="0 0 16 16.001" enable-background="new 0 0 16 16.001" xml:space="preserve">
<g>
	<path fill="#ADCC5C" d="M8,0C3.59,0,0,3.59,0,8.001c0,4.41,3.59,8,8,8s8-3.59,8-8C16,3.59,12.41,0,8,0L8,0z M8,15.385
		c-4.071,0-7.384-3.313-7.384-7.384c0-4.072,3.313-7.385,7.384-7.385s7.383,3.313,7.383,7.385C15.383,12.071,12.071,15.385,8,15.385
		L8,15.385z M8,15.385"/>
	<path fill="#ADCC5C" d="M11.771,4.72l-4.73,5.319L4.191,7.761C4.06,7.653,3.866,7.676,3.758,7.809
		C3.654,7.94,3.674,8.134,3.807,8.24l3.077,2.462c0.057,0.045,0.125,0.067,0.193,0.067c0.086,0,0.169-0.035,0.231-0.104l4.921-5.538
		C12.343,5,12.331,4.807,12.202,4.693C12.077,4.579,11.882,4.592,11.771,4.72L11.771,4.72z M11.771,4.72"/>
</g>
</svg>
