<?xml version="1.0" encoding="utf-8"?>
<!-- Generator: Adobe Illustrator 16.0.0, SVG Export Plug-In . SVG Version: 6.00 Build 0)  -->
<!DOCTYPE svg PUBLIC "-//W3C//DTD SVG 1.1//EN" "http://www.w3.org/Graphics/SVG/1.1/DTD/svg11.dtd">
<svg version="1.1" id="Capa_1" xmlns="http://www.w3.org/2000/svg" xmlns:xlink="http://www.w3.org/1999/xlink" x="0px" y="0px"
	 width="14.468px" height="11.22px" viewBox="0 0 14.468 11.22" enable-background="new 0 0 14.468 11.22" xml:space="preserve">
<g>
	<path fill-rule="evenodd" clip-rule="evenodd" fill="#334963" d="M13.888,6.053H4.173c-0.32,0-0.581-0.124-0.581-0.443
		c0-0.32,0.261-0.442,0.581-0.442h9.715c0.32,0,0.58,0.122,0.58,0.442C14.468,5.929,14.208,6.053,13.888,6.053z"/>
	<g>
		<g>
			<path fill-rule="evenodd" clip-rule="evenodd" fill="#334963" d="M1.211,5.61l4.448-4.708c0.195-0.206,0.195-0.541,0-0.748
				c-0.195-0.206-0.512-0.206-0.706,0l-4.781,5.06c-0.008,0.007-0.018,0.01-0.024,0.018C0.048,5.336,0,5.474,0.001,5.61
				C0,5.747,0.048,5.884,0.147,5.989c0.007,0.008,0.017,0.01,0.024,0.018l4.781,5.059c0.194,0.207,0.511,0.207,0.706,0
				s0.195-0.541,0-0.748L1.211,5.61z"/>
		</g>
	</g>
</g>
</svg>
