<?xml version="1.0" encoding="utf-8"?>
<!-- Generator: Adobe Illustrator 16.0.0, SVG Export Plug-In . SVG Version: 6.00 Build 0)  -->
<!DOCTYPE svg PUBLIC "-//W3C//DTD SVG 1.1//EN" "http://www.w3.org/Graphics/SVG/1.1/DTD/svg11.dtd">
<svg version="1.1" id="Capa_1" xmlns="http://www.w3.org/2000/svg" xmlns:xlink="http://www.w3.org/1999/xlink" x="0px" y="0px"
	 width="16.534px" height="16.535px" viewBox="0 0 16.534 16.535" enable-background="new 0 0 16.534 16.535" xml:space="preserve">
<g>
	<path fill="#5273BD" d="M8.267,0C3.708,0,0,3.709,0,8.268s3.708,8.267,8.267,8.267c0.594,0,1.186-0.063,1.76-0.188
		c0.187-0.041,0.304-0.224,0.264-0.41c-0.04-0.186-0.224-0.304-0.409-0.264c-0.526,0.114-1.07,0.172-1.614,0.172
		c-4.179,0-7.578-3.399-7.578-7.578c0-4.179,3.399-7.579,7.578-7.579s7.579,3.399,7.579,7.579c0,0.782-0.119,1.554-0.354,2.292
		c-0.139,0.438-0.319,0.867-0.534,1.269c-0.065,0.117-0.673,1.129-1.715,0.609c-0.989-0.495-1.442-2.954-1.533-3.86
		c-0.002-0.016-0.006-0.031-0.01-0.046c0.007-0.087,0.012-0.175,0.012-0.264c0-1.9-1.546-3.445-3.445-3.445S4.822,6.368,4.822,8.268
		c0,1.899,1.545,3.444,3.444,3.444c1.273,0,2.387-0.695,2.983-1.725c0.037,0.168,0.08,0.344,0.129,0.524
		c0.37,1.356,0.894,2.211,1.557,2.543c1.324,0.662,2.296-0.294,2.627-0.896c0.238-0.444,0.436-0.912,0.586-1.39
		c0.256-0.806,0.386-1.647,0.386-2.5C16.534,3.709,12.825,0,8.267,0L8.267,0z M8.267,11.023c-1.519,0-2.756-1.236-2.756-2.755
		c0-1.52,1.237-2.756,2.756-2.756c1.52,0,2.756,1.236,2.756,2.756C11.022,9.787,9.786,11.023,8.267,11.023L8.267,11.023z
		 M8.267,11.023"/>
</g>
</svg>
