<?xml version="1.0" encoding="utf-8"?>
<!-- Generator: Adobe Illustrator 16.0.0, SVG Export Plug-In . SVG Version: 6.00 Build 0)  -->
<!DOCTYPE svg PUBLIC "-//W3C//DTD SVG 1.1//EN" "http://www.w3.org/Graphics/SVG/1.1/DTD/svg11.dtd">
<svg version="1.1" id="Capa_1" xmlns="http://www.w3.org/2000/svg" xmlns:xlink="http://www.w3.org/1999/xlink" x="0px" y="0px"
	 width="9.483px" height="9.483px" viewBox="0 0 9.483 9.483" enable-background="new 0 0 9.483 9.483" xml:space="preserve">
<g>
	<g>
		<g>
			<g>
				<path fill="#646464" d="M9.483,9.04c0,0.113-0.043,0.227-0.129,0.313C9.183,9.526,8.901,9.527,8.728,9.354L0.132,0.759
					C-0.042,0.586-0.044,0.304,0.13,0.131c0.173-0.174,0.453-0.174,0.627-0.003l8.596,8.598C9.439,8.812,9.483,8.926,9.483,9.04z"/>
			</g>
		</g>
	</g>
	<g>
		<g>
			<g>
				<path fill="#646464" d="M0.443,9.483c-0.113,0-0.227-0.043-0.313-0.129c-0.174-0.173-0.175-0.453-0.002-0.628l8.596-8.595
					C8.897-0.043,9.18-0.044,9.353,0.129c0.174,0.173,0.174,0.453,0.003,0.627L0.758,9.353C0.672,9.439,0.558,9.483,0.443,9.483z"/>
			</g>
		</g>
	</g>
</g>
</svg>
