<?xml version="1.0" encoding="utf-8"?>
<!-- Generator: Adobe Illustrator 16.0.0, SVG Export Plug-In . SVG Version: 6.00 Build 0)  -->
<!DOCTYPE svg PUBLIC "-//W3C//DTD SVG 1.1//EN" "http://www.w3.org/Graphics/SVG/1.1/DTD/svg11.dtd">
<svg version="1.1" id="Capa_1" xmlns="http://www.w3.org/2000/svg" xmlns:xlink="http://www.w3.org/1999/xlink" x="0px" y="0px"
	 width="14.815px" height="14.815px" viewBox="0 0 14.815 14.815" enable-background="new 0 0 14.815 14.815" xml:space="preserve">
<g>
	<path fill="#02C5BA" d="M7.408,0C3.323,0,0,3.323,0,7.408c0,1.392,0.387,2.745,1.121,3.92c-0.292,1.025-0.82,2.964-0.826,2.985
		c-0.027,0.1,0.002,0.207,0.076,0.277c0.075,0.073,0.185,0.1,0.283,0.068l2.935-0.902c1.151,0.692,2.468,1.059,3.819,1.059
		c4.084,0,7.407-3.323,7.407-7.407C14.815,3.323,11.492,0,7.408,0L7.408,0z M7.408,14.245c-1.289,0-2.542-0.36-3.629-1.041
		c-0.044-0.027-0.097-0.043-0.15-0.043c-0.029,0-0.057,0.004-0.083,0.013l-2.563,0.789c0.188-0.688,0.525-1.917,0.722-2.601
		c0.024-0.079,0.01-0.165-0.034-0.234c-0.72-1.107-1.1-2.394-1.1-3.72c0-3.771,3.067-6.837,6.838-6.837
		c3.77,0,6.836,3.066,6.836,6.837C14.244,11.178,11.178,14.245,7.408,14.245L7.408,14.245z M7.408,14.245"/>
	<path fill="#02C5BA" d="M12.246,9.152c-0.526-0.292-0.975-0.584-1.301-0.799c-0.249-0.162-0.43-0.279-0.563-0.346
		c-0.368-0.186-0.649-0.055-0.755,0.053C9.613,8.074,9.603,8.088,9.592,8.104C9.207,8.68,8.707,9.23,8.561,9.261
		C8.391,9.234,7.597,8.782,6.81,8.126C6.004,7.455,5.498,6.813,5.423,6.375c0.516-0.532,0.702-0.866,0.702-1.247
		c0-0.393-0.915-2.029-1.081-2.195C4.879,2.768,4.504,2.74,3.933,2.855C3.879,2.866,3.827,2.894,3.787,2.933
		c-0.068,0.07-1.689,1.721-0.918,3.723c0.844,2.196,3.013,4.751,5.778,5.165c0.314,0.047,0.608,0.071,0.884,0.071
		c1.627,0,2.587-0.819,2.857-2.443C12.408,9.33,12.352,9.211,12.246,9.152L12.246,9.152z M8.731,11.257
		C5.809,10.818,3.966,7.921,3.4,6.45C2.838,4.992,3.873,3.69,4.133,3.397C4.345,3.361,4.566,3.346,4.66,3.361
		c0.193,0.27,0.865,1.538,0.896,1.767c0,0.15-0.049,0.359-0.629,0.938C4.873,6.12,4.844,6.192,4.844,6.269
		c0,1.491,3.146,3.562,3.703,3.562c0.484,0,1.117-0.815,1.477-1.346c0.021,0,0.055,0.007,0.105,0.032
		c0.103,0.052,0.28,0.168,0.505,0.314c0.298,0.194,0.691,0.452,1.157,0.719C11.58,10.567,10.988,11.597,8.731,11.257L8.731,11.257z
		 M8.731,11.257"/>
</g>
</svg>
