<?xml version="1.0" encoding="utf-8"?>
<!-- Generator: Adobe Illustrator 16.0.0, SVG Export Plug-In . SVG Version: 6.00 Build 0)  -->
<!DOCTYPE svg PUBLIC "-//W3C//DTD SVG 1.1//EN" "http://www.w3.org/Graphics/SVG/1.1/DTD/svg11.dtd">
<svg version="1.1" id="Capa_1" xmlns="http://www.w3.org/2000/svg" xmlns:xlink="http://www.w3.org/1999/xlink" x="0px" y="0px"
	 width="41.178px" height="41.178px" viewBox="0 0 41.178 41.178" enable-background="new 0 0 41.178 41.178" xml:space="preserve">
<g>
	<g>
		<path fill="#6DA7F3" d="M24.992,24.292h-7.345c-0.175,0-0.319-0.121-0.319-0.298c0-0.178,0.145-0.295,0.319-0.295h7.345
			c0.179,0,0.323,0.117,0.323,0.295C25.315,24.171,25.171,24.292,24.992,24.292L24.992,24.292z M24.992,24.274"/>
		<path fill="#6DA7F3" d="M15.902,26.021c-1.141,0-2.069-0.926-2.069-2.067c0-1.143,0.929-2.07,2.069-2.07
			c1.14,0,2.068,0.928,2.068,2.07C17.971,25.096,17.042,26.021,15.902,26.021L15.902,26.021z M15.902,22.527
			c-0.786,0-1.427,0.64-1.427,1.427c0,0.788,0.641,1.428,1.427,1.428c0.785,0,1.426-0.64,1.426-1.428
			C17.328,23.167,16.688,22.527,15.902,22.527L15.902,22.527z M15.902,22.527"/>
		<path fill="#6DA7F3" d="M26.743,26.021c-1.143,0-2.07-0.926-2.07-2.067c0-1.143,0.928-2.07,2.07-2.07
			c1.142,0,2.067,0.928,2.067,2.07C28.811,25.096,27.881,26.021,26.743,26.021L26.743,26.021z M26.743,22.527
			c-0.788,0-1.428,0.64-1.428,1.427c0,0.788,0.64,1.428,1.428,1.428c0.787,0,1.427-0.64,1.427-1.428
			C28.17,23.167,27.527,22.527,26.743,22.527L26.743,22.527z M26.743,22.527"/>
		<g>
			<path fill="#6DA7F3" d="M24.995,24.292H17.65c-0.178,0-0.322-0.121-0.322-0.298c0-0.178,0.145-0.295,0.322-0.295h7.345
				c0.179,0,0.323,0.117,0.323,0.295C25.318,24.171,25.174,24.292,24.995,24.292L24.995,24.292z M24.995,24.274"/>
			<path fill="#6DA7F3" d="M30.031,24.292h-1.545c-0.175,0-0.319-0.121-0.319-0.298c0-0.178,0.145-0.295,0.319-0.295h1.545
				c0.398,0,0.733-0.318,0.793-0.714l0.342-2.209c0.025-0.154-0.012-0.312-0.106-0.438c-0.094-0.123-0.232-0.204-0.386-0.224
				l-4.279-0.526c-0.063-0.006-0.12-0.032-0.17-0.073l-3.867-3.218c-0.254-0.217-0.578-0.301-0.913-0.301h-6.052
				c-0.298,0-0.574,0.118-0.734,0.369l-1.807,2.813c-0.042,0.065-0.107,0.105-0.18,0.126l-2.184,0.656
				c-0.326,0.097-0.53,0.421-0.478,0.757l0.306,1.991c0.088,0.555,0.559,0.989,1.119,0.989h2.717c0.177,0,0.32,0.119,0.32,0.297
				c0,0.177-0.144,0.296-0.32,0.296h-2.72c-0.879,0-1.619-0.64-1.754-1.509l-0.304-1.966c-0.101-0.648,0.298-1.285,0.926-1.473
				l2.07-0.626l1.747-2.675c0.279-0.437,0.756-0.64,1.274-0.64h6.055c0.483,0,0.953,0.115,1.324,0.426l3.796,3.161l4.185,0.494
				c0.33,0.041,0.622,0.2,0.818,0.467c0.202,0.263,0.283,0.583,0.232,0.913l-0.345,2.198C31.348,23.77,30.749,24.292,30.031,24.292
				L30.031,24.292z M30.031,24.274"/>
		</g>
		<path fill="#6DA7F3" d="M22.956,19.848h-7.37c-0.179,0-0.32-0.117-0.32-0.294c0-0.179,0.142-0.298,0.32-0.298h7.37
			c0.176,0,0.32,0.119,0.32,0.298C23.276,19.73,23.132,19.848,22.956,19.848L22.956,19.848z M22.956,19.838"/>
	</g>
	<g>
		<g>
			<g>
				<path fill="#6DA7F3" d="M20.59,41.178C9.236,41.178,0,31.941,0,20.589S9.236,0,20.59,0c11.352,0,20.588,9.236,20.588,20.589
					S31.941,41.178,20.59,41.178z M20.59,0.821c-10.9,0-19.769,8.868-19.769,19.768c0,10.9,8.868,19.768,19.769,19.768
					c10.899,0,19.767-8.867,19.767-19.768C40.356,9.689,31.489,0.821,20.59,0.821z"/>
			</g>
		</g>
	</g>
</g>
</svg>
