<?xml version="1.0" encoding="utf-8"?>
<!-- Generator: Adobe Illustrator 16.0.0, SVG Export Plug-In . SVG Version: 6.00 Build 0)  -->
<!DOCTYPE svg PUBLIC "-//W3C//DTD SVG 1.1//EN" "http://www.w3.org/Graphics/SVG/1.1/DTD/svg11.dtd">
<svg version="1.1" id="Capa_1" xmlns="http://www.w3.org/2000/svg" xmlns:xlink="http://www.w3.org/1999/xlink" x="0px" y="0px"
	 width="41.178px" height="41.178px" viewBox="0 0 41.178 41.178" enable-background="new 0 0 41.178 41.178" xml:space="preserve">
<g>
	<g>
		<g>
			<g>
				<path fill="#6182DB" d="M20.59,41.178C9.236,41.178,0,31.941,0,20.589S9.236,0,20.59,0c11.352,0,20.588,9.236,20.588,20.589
					S31.941,41.178,20.59,41.178z M20.59,0.821c-10.9,0-19.769,8.868-19.769,19.768c0,10.9,8.868,19.768,19.769,19.768
					c10.899,0,19.767-8.867,19.767-19.768C40.356,9.689,31.489,0.821,20.59,0.821z"/>
			</g>
		</g>
	</g>
	<g>
		<path fill="#6182DB" d="M31.621,23.149c-0.005-0.032-0.564-2.907-4.435-3.598c1.041-0.686,1.752-1.966,1.752-3.449
			c0-2.196-1.544-3.983-3.442-3.983s-3.442,1.787-3.442,3.983c0,1.479,0.708,2.756,1.744,3.443c-1.642,0.308-2.705,1.056-3.381,1.79
			c0.208,0.152,0.408,0.312,0.602,0.481c0.774-0.82,2.157-1.654,4.578-1.607c4.389,0.086,5.14,2.724,5.14,3.05v3.676h0.889V23.22
			L31.621,23.149z M25.496,19.319c-1.476,0-2.676-1.442-2.676-3.217c0-1.773,1.2-3.217,2.676-3.217s2.676,1.443,2.676,3.217
			C28.172,17.877,26.972,19.319,25.496,19.319z"/>
		<path fill="#6182DB" d="M21.929,25.271c-0.005-0.032-0.564-2.907-4.435-3.598c1.041-0.686,1.752-1.966,1.752-3.449
			c0-2.196-1.544-3.983-3.442-3.983s-3.442,1.787-3.442,3.983c0,1.479,0.708,2.756,1.744,3.443
			c-3.658,0.687-4.457,3.557-4.465,3.591l-0.086,3.785l0.806,0.015l0.059-3.637c0.123-0.396,1.121-3.174,5.485-3.09
			c4.389,0.086,5.14,2.724,5.14,3.05v3.676h0.889v-3.716L21.929,25.271z M13.128,18.225c0-1.773,1.2-3.217,2.676-3.217
			s2.676,1.443,2.676,3.217c0,1.774-1.2,3.217-2.676,3.217S13.128,19.999,13.128,18.225z"/>
	</g>
</g>
</svg>
