<?xml version="1.0" encoding="utf-8"?>
<!-- Generator: Adobe Illustrator 16.0.0, SVG Export Plug-In . SVG Version: 6.00 Build 0)  -->
<!DOCTYPE svg PUBLIC "-//W3C//DTD SVG 1.1//EN" "http://www.w3.org/Graphics/SVG/1.1/DTD/svg11.dtd">
<svg version="1.1" id="Capa_1" xmlns="http://www.w3.org/2000/svg" xmlns:xlink="http://www.w3.org/1999/xlink" x="0px" y="0px"
	 width="41.178px" height="41.178px" viewBox="0 0 41.178 41.178" enable-background="new 0 0 41.178 41.178" xml:space="preserve">
<g>
	<g>
		<g>
			<g>
				<g>
					<path fill="#02C5BA" d="M20.59,41.178C9.236,41.178,0,31.941,0,20.589S9.236,0,20.59,0c11.352,0,20.588,9.236,20.588,20.589
						S31.941,41.178,20.59,41.178z M20.59,0.821c-10.9,0-19.769,8.868-19.769,19.768c0,10.9,8.868,19.768,19.769,19.768
						c10.899,0,19.767-8.867,19.767-19.768C40.356,9.689,31.489,0.821,20.59,0.821z"/>
				</g>
			</g>
		</g>
	</g>
	<g>
		<g>
			<path fill="#02C5BA" d="M30.903,11.788H10.275c-0.932,0-1.688,0.756-1.688,1.688v14.229c0,0.93,0.756,1.686,1.688,1.686h20.628
				c0.932,0,1.688-0.756,1.688-1.686V13.475C32.591,12.544,31.834,11.788,30.903,11.788z M31.79,27.704
				c0,0.489-0.396,0.887-0.887,0.887H10.275c-0.49,0-0.887-0.398-0.887-0.887v-9.916H31.79V27.704z M31.79,16.987H9.388v-2.398
				H31.79V16.987z M31.79,13.788H9.388v-0.313c0-0.49,0.397-0.887,0.887-0.887h20.628c0.491,0,0.887,0.397,0.887,0.887V13.788z"/>
			<path fill="#02C5BA" d="M11.389,22.192h8.8c0.221,0,0.4-0.18,0.4-0.4c0-0.22-0.18-0.4-0.4-0.4h-8.8
				c-0.221,0-0.401,0.18-0.401,0.4C10.988,22.013,11.167,22.192,11.389,22.192z"/>
			<path fill="#02C5BA" d="M24.99,27.39c0.51,0,0.986-0.139,1.4-0.379c0.412,0.241,0.889,0.379,1.399,0.379
				c1.544,0,2.801-1.256,2.801-2.799c0-1.546-1.256-2.802-2.801-2.802c-0.51,0-0.987,0.139-1.399,0.379
				c-0.414-0.24-0.891-0.379-1.4-0.379c-1.545,0-2.802,1.256-2.802,2.802C22.188,26.133,23.445,27.39,24.99,27.39z M27.074,22.727
				c0.223-0.086,0.463-0.137,0.715-0.137c1.104,0,2,0.897,2,2c0,1.102-0.896,2-2,2c-0.252,0-0.493-0.053-0.715-0.139
				c0.443-0.496,0.715-1.146,0.715-1.861C27.79,23.874,27.518,23.223,27.074,22.727z M26.391,23.164
				c0.369,0.364,0.6,0.868,0.6,1.427c0,0.556-0.23,1.061-0.6,1.423c-0.372-0.363-0.602-0.867-0.602-1.423
				C25.789,24.032,26.019,23.528,26.391,23.164z M24.99,22.59c0.252,0,0.492,0.05,0.714,0.137c-0.443,0.496-0.714,1.146-0.714,1.864
				c0,0.714,0.271,1.365,0.714,1.861c-0.223,0.086-0.462,0.139-0.714,0.139c-1.104,0-2-0.898-2-2
				C22.99,23.487,23.887,22.59,24.99,22.59z"/>
		</g>
	</g>
</g>
</svg>
