<?xml version="1.0" encoding="utf-8"?>
<!-- Generator: Adobe Illustrator 16.0.0, SVG Export Plug-In . SVG Version: 6.00 Build 0)  -->
<!DOCTYPE svg PUBLIC "-//W3C//DTD SVG 1.1//EN" "http://www.w3.org/Graphics/SVG/1.1/DTD/svg11.dtd">
<svg version="1.1" id="Capa_1" xmlns="http://www.w3.org/2000/svg" xmlns:xlink="http://www.w3.org/1999/xlink" x="0px" y="0px"
	 width="19.256px" height="14.583px" viewBox="0 0 19.256 14.583" enable-background="new 0 0 19.256 14.583" xml:space="preserve">
<g>
	<path fill="#FFFFFF" d="M17.182,1.515H2.074c-0.409,0-0.741,0.332-0.741,0.74c0,0.409,0.332,0.741,0.741,0.741h15.107
		c0.409,0,0.741-0.332,0.741-0.741C17.923,1.847,17.591,1.515,17.182,1.515z"/>
	<path fill="#FFFFFF" d="M17.182,6.551H2.074c-0.409,0-0.741,0.331-0.741,0.74s0.332,0.741,0.741,0.741h15.107
		c0.409,0,0.741-0.332,0.741-0.741S17.591,6.551,17.182,6.551z"/>
	<path fill="#FFFFFF" d="M17.182,11.587H2.074c-0.409,0-0.741,0.331-0.741,0.74s0.332,0.741,0.741,0.741h15.107
		c0.409,0,0.741-0.332,0.741-0.741S17.591,11.587,17.182,11.587z"/>
</g>
</svg>
