<?xml version="1.0" encoding="utf-8"?>
<!-- Generator: Adobe Illustrator 16.0.0, SVG Export Plug-In . SVG Version: 6.00 Build 0)  -->
<!DOCTYPE svg PUBLIC "-//W3C//DTD SVG 1.1//EN" "http://www.w3.org/Graphics/SVG/1.1/DTD/svg11.dtd">
<svg version="1.1" id="Capa_1" xmlns="http://www.w3.org/2000/svg" xmlns:xlink="http://www.w3.org/1999/xlink" x="0px" y="0px"
	 width="16.59px" height="11.554px" viewBox="0 0 16.59 11.554" enable-background="new 0 0 16.59 11.554" xml:space="preserve">
<g>
	<path fill="#334963" d="M15.849,0H0.741C0.332,0,0,0.332,0,0.74c0,0.409,0.332,0.741,0.741,0.741h15.107
		c0.409,0,0.741-0.332,0.741-0.741C16.59,0.332,16.258,0,15.849,0z"/>
	<path fill="#334963" d="M15.849,5.036H0.741C0.332,5.036,0,5.367,0,5.776s0.332,0.741,0.741,0.741h15.107
		c0.409,0,0.741-0.332,0.741-0.741S16.258,5.036,15.849,5.036z"/>
	<path fill="#334963" d="M15.849,10.072H0.741C0.332,10.072,0,10.403,0,10.813s0.332,0.741,0.741,0.741h15.107
		c0.409,0,0.741-0.332,0.741-0.741S16.258,10.072,15.849,10.072z"/>
</g>
</svg>
