<?xml version="1.0" encoding="utf-8"?>
<!-- Generator: Adobe Illustrator 16.0.0, SVG Export Plug-In . SVG Version: 6.00 Build 0)  -->
<!DOCTYPE svg PUBLIC "-//W3C//DTD SVG 1.1//EN" "http://www.w3.org/Graphics/SVG/1.1/DTD/svg11.dtd">
<svg version="1.1" id="Capa_1" xmlns="http://www.w3.org/2000/svg" xmlns:xlink="http://www.w3.org/1999/xlink" x="0px" y="0px"
	 width="41.178px" height="41.178px" viewBox="0 0 41.178 41.178" enable-background="new 0 0 41.178 41.178" xml:space="preserve">
<g>
	<g>
		<g>
			<g>
				<path fill="#4B84FA" d="M20.59,41.178C9.236,41.178,0,31.941,0,20.589S9.236,0,20.59,0c11.352,0,20.588,9.236,20.588,20.589
					S31.941,41.178,20.59,41.178z M20.59,0.821c-10.9,0-19.769,8.868-19.769,19.768c0,10.9,8.868,19.768,19.769,19.768
					c10.899,0,19.767-8.867,19.767-19.768C40.356,9.689,31.489,0.821,20.59,0.821z"/>
			</g>
		</g>
	</g>
	<g>
		<path fill="#4B84FA" d="M22.772,19.495v-3.89l-8.086,3.89v-9.176h-4.368v20.541h20.541V15.604L22.772,19.495z M13.856,11.194
			v9.658l8.086-3.89v3.89l8.087-3.89v4.939H11.194V11.194H13.856z M11.194,22.772h8.959v7.211h-8.959V22.772z M21.024,29.983v-7.211
			h9.005v7.211H21.024z M21.024,29.983"/>
	</g>
</g>
</svg>
