<?xml version="1.0" encoding="utf-8"?>
<!-- Generator: Adobe Illustrator 16.0.0, SVG Export Plug-In . SVG Version: 6.00 Build 0)  -->
<!DOCTYPE svg PUBLIC "-//W3C//DTD SVG 1.1//EN" "http://www.w3.org/Graphics/SVG/1.1/DTD/svg11.dtd">
<svg version="1.1" id="Capa_1" xmlns="http://www.w3.org/2000/svg" xmlns:xlink="http://www.w3.org/1999/xlink" x="0px" y="0px"
	 width="19px" height="19px" viewBox="0 0 19 19" enable-background="new 0 0 19 19" xml:space="preserve">
<g>
	<circle fill="#15315E" cx="9.5" cy="9.5" r="9.5"/>
	<g>
		<g>
			<path fill="#FFFFFF" d="M9.445,14.176c-0.242,0-0.438-0.196-0.438-0.438V5.261c0-0.242,0.196-0.438,0.438-0.438
				S9.884,5.02,9.884,5.261v8.477C9.884,13.98,9.688,14.176,9.445,14.176z"/>
		</g>
		<g>
			<path fill="#FFFFFF" d="M13.739,9.951H5.263c-0.242,0-0.439-0.197-0.439-0.438c0-0.242,0.197-0.438,0.439-0.438h8.477
				c0.241,0,0.438,0.196,0.438,0.438C14.178,9.754,13.98,9.951,13.739,9.951z"/>
		</g>
	</g>
</g>
</svg>
