<?xml version="1.0" encoding="utf-8"?>
<!-- Generator: Adobe Illustrator 16.0.0, SVG Export Plug-In . SVG Version: 6.00 Build 0)  -->
<!DOCTYPE svg PUBLIC "-//W3C//DTD SVG 1.1//EN" "http://www.w3.org/Graphics/SVG/1.1/DTD/svg11.dtd">
<svg version="1.1" id="Capa_1" xmlns="http://www.w3.org/2000/svg" xmlns:xlink="http://www.w3.org/1999/xlink" x="0px" y="0px"
	 width="41.178px" height="41.178px" viewBox="0 0 41.178 41.178" enable-background="new 0 0 41.178 41.178" xml:space="preserve">
<g>
	<g>
		<g>
			<g>
				<path fill="#B2C864" d="M20.59,41.178C9.236,41.178,0,31.941,0,20.589S9.236,0,20.59,0c11.352,0,20.588,9.236,20.588,20.589
					S31.941,41.178,20.59,41.178z M20.59,0.821c-10.9,0-19.769,8.868-19.769,19.768c0,10.9,8.868,19.768,19.769,19.768
					c10.899,0,19.767-8.867,19.767-19.768C40.356,9.689,31.489,0.821,20.59,0.821z"/>
			</g>
		</g>
	</g>
	<g>
		<path fill="#B2C864" d="M28.879,17.916c0-4.602-3.709-8.312-8.29-8.312s-8.29,3.71-8.29,8.29v0.021
			c-1.845,0.104-3.316,1.637-3.316,3.502v0.415c0,1.948,1.575,3.523,3.523,3.523h0.187l1.471,2.342
			c1.037,1.658,2.798,2.632,4.747,2.632h0.29c0.187,0.705,0.829,1.244,1.596,1.244c0.912,0,1.659-0.747,1.659-1.658
			c0-0.912-0.747-1.658-1.659-1.658c-0.767,0-1.409,0.539-1.596,1.243h-0.29c-1.658,0-3.171-0.85-4.042-2.259l-1.202-1.886h0.291
			c0.456,0,0.829-0.373,0.829-0.829v-5.803c0-0.456-0.373-0.83-0.829-0.83h-0.83c0-4.124,3.337-7.461,7.461-7.461
			s7.461,3.337,7.461,7.461h-0.829c-0.456,0-0.829,0.374-0.829,0.83v5.803c0,0.456,0.373,0.829,0.829,0.829h1.451
			c1.948,0,3.523-1.575,3.523-3.523v-0.415C32.195,19.552,30.724,18.019,28.879,17.916L28.879,17.916z M20.796,29.086
			c0.456,0,0.829,0.373,0.829,0.829s-0.373,0.829-0.829,0.829s-0.829-0.373-0.829-0.829S20.34,29.086,20.796,29.086L20.796,29.086z
			 M13.957,18.724v5.803h-1.452c-1.492,0-2.694-1.202-2.694-2.694v-0.415c0-1.492,1.202-2.693,2.694-2.693H13.957z M31.366,21.833
			c0,1.492-1.202,2.694-2.694,2.694h-1.451v-5.803h1.451c1.492,0,2.694,1.201,2.694,2.693V21.833z M31.366,21.833"/>
		<path fill="#B2C864" d="M24.029,12.734"/>
		<path fill="#B2C864" d="M20.589,11.676"/>
	</g>
</g>
</svg>
