<?xml version="1.0" encoding="utf-8"?>
<!-- Generator: Adobe Illustrator 16.0.0, SVG Export Plug-In . SVG Version: 6.00 Build 0)  -->
<!DOCTYPE svg PUBLIC "-//W3C//DTD SVG 1.1//EN" "http://www.w3.org/Graphics/SVG/1.1/DTD/svg11.dtd">
<svg version="1.1" id="Capa_1" xmlns="http://www.w3.org/2000/svg" xmlns:xlink="http://www.w3.org/1999/xlink" x="0px" y="0px"
	 width="16px" height="16px" viewBox="0 0 16 16" enable-background="new 0 0 16 16" xml:space="preserve">
<g>
	<path fill="#8C90AC" d="M13.218,7.573c0.233-0.228,0.316-0.563,0.215-0.875s-0.365-0.534-0.688-0.581l-2.614-0.38
		c-0.084-0.013-0.157-0.065-0.195-0.144L8.766,3.227C8.62,2.934,8.327,2.751,8,2.751S7.38,2.933,7.234,3.227L6.065,5.594
		C6.028,5.671,5.954,5.725,5.869,5.737l-2.613,0.38c-0.324,0.047-0.588,0.27-0.689,0.581C2.466,7.011,2.549,7.346,2.782,7.573
		l1.891,1.843c0.062,0.061,0.09,0.147,0.075,0.232l-0.445,2.603c-0.055,0.322,0.075,0.643,0.34,0.835
		c0.147,0.106,0.32,0.163,0.501,0.163c0.137,0,0.275-0.033,0.398-0.098l2.337-1.229c0.074-0.039,0.169-0.039,0.244,0l2.336,1.229
		c0.284,0.148,0.637,0.123,0.899-0.065c0.264-0.193,0.395-0.513,0.34-0.835l-0.447-2.603c-0.015-0.086,0.013-0.172,0.076-0.231
		L13.218,7.573z M10.667,9.749l0.446,2.602c0.018,0.102-0.021,0.195-0.104,0.256c-0.083,0.06-0.185,0.066-0.276,0.021l-2.336-1.229
		C8.276,11.334,8.139,11.301,8,11.301c-0.138,0-0.275,0.033-0.397,0.098l-2.336,1.229c-0.09,0.046-0.195,0.039-0.276-0.021
		c-0.083-0.061-0.121-0.154-0.104-0.256l0.446-2.602c0.047-0.277-0.044-0.56-0.246-0.757L3.196,7.149
		C3.123,7.079,3.099,6.979,3.13,6.882C3.162,6.784,3.24,6.718,3.341,6.703l2.613-0.38c0.278-0.039,0.519-0.214,0.643-0.467
		l1.167-2.368C7.811,3.396,7.896,3.344,8,3.344s0.188,0.053,0.234,0.145l1.169,2.367c0.123,0.254,0.363,0.428,0.642,0.468
		l2.613,0.38c0.101,0.015,0.18,0.081,0.211,0.179c0.032,0.097,0.007,0.197-0.066,0.268l-1.891,1.843
		C10.712,9.188,10.62,9.472,10.667,9.749z"/>
	<g>
		<path fill="#8C90AC" d="M8,0C3.59,0,0,3.589,0,8s3.59,8,8,8s8-3.589,8-8S12.41,0,8,0L8,0z M8,15.385
			c-4.071,0-7.384-3.313-7.384-7.385S3.929,0.616,8,0.616S15.383,3.929,15.383,8S12.071,15.385,8,15.385L8,15.385z M8,15.385"/>
	</g>
</g>
</svg>
