<?xml version="1.0" encoding="utf-8"?>
<!-- Generator: Adobe Illustrator 16.0.0, SVG Export Plug-In . SVG Version: 6.00 Build 0)  -->
<!DOCTYPE svg PUBLIC "-//W3C//DTD SVG 1.1//EN" "http://www.w3.org/Graphics/SVG/1.1/DTD/svg11.dtd">
<svg version="1.1" id="Capa_1" xmlns="http://www.w3.org/2000/svg" xmlns:xlink="http://www.w3.org/1999/xlink" x="0px" y="0px"
	 width="16px" height="16px" viewBox="0 0 16 16" enable-background="new 0 0 16 16" xml:space="preserve">
<g>
	<g>
		<path fill="#8C90AC" d="M8,0C3.59,0,0,3.589,0,7.999S3.59,16,8,16s8-3.591,8-8.001S12.41,0,8,0L8,0z M8,15.383
			c-4.07,0-7.383-3.313-7.383-7.384S3.93,0.616,8,0.616c4.071,0,7.384,3.313,7.384,7.383S12.071,15.383,8,15.383L8,15.383z
			 M8,15.383"/>
	</g>
	<g>
		<path fill="#8C90AC" d="M12.457,6.391c-1.186-1.185-2.759-1.837-4.433-1.837c-1.675,0-3.249,0.652-4.434,1.837L1.959,8.022
			l1.585,1.586c1.185,1.184,2.757,1.837,4.433,1.837c1.675,0,3.249-0.652,4.433-1.837l1.633-1.633L12.457,6.391z M12.118,9.317
			c-1.106,1.106-2.577,1.716-4.142,1.716c-1.566,0-3.037-0.609-4.143-1.716L2.54,8.022l1.342-1.341
			c1.105-1.107,2.576-1.717,4.143-1.717c1.565,0,3.036,0.609,4.142,1.717l1.294,1.294L12.118,9.317z M12.118,9.317"/>
		<path fill="#8C90AC" d="M7.934,5.37c-1.454,0-2.636,1.184-2.636,2.635c0,1.452,1.182,2.635,2.636,2.635
			c1.451,0,2.633-1.183,2.633-2.635C10.566,6.554,9.385,5.37,7.934,5.37L7.934,5.37z M7.934,10.228
			c-1.227,0-2.225-0.996-2.225-2.223c0-1.226,0.998-2.224,2.225-2.224c1.224,0,2.223,0.998,2.223,2.224
			C10.155,9.231,9.157,10.228,7.934,10.228L7.934,10.228z M7.934,10.228"/>
	</g>
</g>
</svg>
