<?xml version="1.0" encoding="utf-8"?>
<!-- Generator: Adobe Illustrator 16.0.0, SVG Export Plug-In . SVG Version: 6.00 Build 0)  -->
<!DOCTYPE svg PUBLIC "-//W3C//DTD SVG 1.1//EN" "http://www.w3.org/Graphics/SVG/1.1/DTD/svg11.dtd">
<svg version="1.1" id="Capa_1" xmlns="http://www.w3.org/2000/svg" xmlns:xlink="http://www.w3.org/1999/xlink" x="0px" y="0px"
	 width="21.554px" height="16.538px" viewBox="0 0 21.554 16.538" enable-background="new 0 0 21.554 16.538" xml:space="preserve">
<g>
	<g>
		<path fill="#5273BD" d="M8.417,8.428c1.129-0.757,1.882-2.167,1.882-3.783c0-2.41-1.7-4.372-3.783-4.372S2.734,2.234,2.734,4.645
			c0,1.631,0.831,3.053,1.978,3.805C0.645,9.263,0,12.455,0,12.455v4.083h0.129h0.418h0.338v-4.039c0-0.357,0.887-3.252,5.61-3.346
			V9.151c0,0,0.137,0,0.193,0.002c4.815,0.094,5.712,2.988,5.712,3.346v4.039h0.886v-4.083C13.286,12.455,12.646,9.192,8.417,8.428z
			 M3.573,4.646c0-1.947,1.318-3.531,2.938-3.531s2.937,1.584,2.937,3.531c0,1.946-1.317,3.53-2.937,3.53S3.573,6.592,3.573,4.646z"
			/>
		<path fill="#5273BD" d="M17.65,6.798c0.941-0.631,1.646-1.807,1.646-3.153C19.297,1.636,17.918,0,16.182,0
			S13.05,1.636,13.05,3.645c0,1.358,0.528,2.544,1.483,3.171c-1.077,0.216-1.88,0.632-2.479,1.099
			c0.178,0.139,0.297,0.285,0.463,0.439c0.707-0.504,1.654-0.92,3.426-0.951V7.4c0,0,0.015,0.001,0.063,0.002
			c4.014,0.078,4.662,2.49,4.662,2.789v3.395h0.886v-3.432C21.554,10.154,21.176,7.436,17.65,6.798z M13.769,3.645
			c0-1.622,1.098-2.942,2.448-2.942c1.349,0,2.447,1.32,2.447,2.942c0,1.623-1.099,2.942-2.447,2.942
			C14.866,6.587,13.769,5.268,13.769,3.645z"/>
	</g>
</g>
</svg>
