<?xml version="1.0" encoding="utf-8"?>
<!-- Generator: Adobe Illustrator 16.0.0, SVG Export Plug-In . SVG Version: 6.00 Build 0)  -->
<!DOCTYPE svg PUBLIC "-//W3C//DTD SVG 1.1//EN" "http://www.w3.org/Graphics/SVG/1.1/DTD/svg11.dtd">
<svg version="1.1" id="Capa_1" xmlns="http://www.w3.org/2000/svg" xmlns:xlink="http://www.w3.org/1999/xlink" x="0px" y="0px"
	 width="15.685px" height="15.093px" viewBox="0 0 15.685 15.093" enable-background="new 0 0 15.685 15.093" xml:space="preserve">
<g>
	<path fill="#5273BD" d="M2.372,10.999V0.446C2.372,0.2,2.172,0,1.926,0S1.479,0.2,1.479,0.446v10.612
		C0.603,11.313,0,12.109,0,13.033c0,1.136,0.924,2.06,2.06,2.06s2.06-0.924,2.06-2.06C4.119,12.02,3.362,11.151,2.372,10.999z
		 M2.06,14.317c-0.708,0-1.284-0.576-1.284-1.284s0.576-1.284,1.284-1.284c0.709,0,1.285,0.576,1.285,1.284
		S2.769,14.317,2.06,14.317z"/>
	<path fill="#5273BD" d="M13.625,0c-1.136,0-2.06,0.924-2.06,2.06c0,1.015,0.757,1.883,1.747,2.034v10.553
		c0,0.246,0.2,0.446,0.446,0.446s0.446-0.2,0.446-0.446V4.035c0.877-0.256,1.479-1.052,1.479-1.976C15.685,0.924,14.761,0,13.625,0z
		 M13.625,0.775c0.708,0,1.284,0.576,1.284,1.284s-0.576,1.284-1.284,1.284s-1.284-0.576-1.284-1.284S12.917,0.775,13.625,0.775z"/>
	<path fill="#5273BD" d="M8.289,5.538V0.446C8.289,0.2,8.089,0,7.843,0S7.396,0.2,7.396,0.446v5.092
		C6.455,5.744,5.783,6.569,5.783,7.547c0,0.977,0.672,1.802,1.613,2.008v5.092c0,0.246,0.2,0.446,0.446,0.446s0.446-0.2,0.446-0.446
		V9.555c0.942-0.206,1.613-1.031,1.613-2.008C9.902,6.569,9.23,5.744,8.289,5.538z M9.127,7.547c0,0.708-0.576,1.284-1.285,1.284
		c-0.708,0-1.284-0.576-1.284-1.284s0.576-1.284,1.284-1.284C8.551,6.263,9.127,6.839,9.127,7.547z"/>
</g>
</svg>
