<?xml version="1.0" encoding="utf-8"?>
<!-- Generator: Adobe Illustrator 16.0.0, SVG Export Plug-In . SVG Version: 6.00 Build 0)  -->
<!DOCTYPE svg PUBLIC "-//W3C//DTD SVG 1.1//EN" "http://www.w3.org/Graphics/SVG/1.1/DTD/svg11.dtd">
<svg version="1.1" id="Capa_1" xmlns="http://www.w3.org/2000/svg" xmlns:xlink="http://www.w3.org/1999/xlink" x="0px" y="0px"
	 width="14.205px" height="15.684px" viewBox="0 0 14.205 15.684" enable-background="new 0 0 14.205 15.684" xml:space="preserve">
<g>
	<path fill="#5273BD" d="M13.329,0H0.876C0.394,0,0,0.394,0,0.876v13.932c0,0.482,0.394,0.876,0.876,0.876h12.453
		c0.482,0,0.876-0.394,0.876-0.876V0.876C14.205,0.394,13.812,0,13.329,0z M0.813,8.249h12.577v6.559
		c0,0.035-0.027,0.063-0.062,0.063H0.876c-0.034,0-0.063-0.028-0.063-0.063V8.249z M0.876,0.813h12.453
		c0.034,0,0.062,0.027,0.062,0.063v6.56H0.813v-6.56C0.813,0.842,0.842,0.813,0.876,0.813z"/>
	<path fill="#5273BD" d="M5.694,4.915h2.817c0.578,0,1.049-0.471,1.049-1.049V3.483c0-0.225-0.183-0.407-0.407-0.407
		c-0.224,0-0.406,0.183-0.406,0.407v0.383c0,0.131-0.105,0.236-0.235,0.236H5.694c-0.131,0-0.236-0.105-0.236-0.236V3.483
		c0-0.225-0.183-0.407-0.406-0.407c-0.225,0-0.407,0.183-0.407,0.407v0.383C4.645,4.444,5.115,4.915,5.694,4.915z"/>
	<path fill="#5273BD" d="M5.694,12.351h2.817c0.578,0,1.049-0.471,1.049-1.049v-0.383c0-0.225-0.183-0.407-0.407-0.407
		c-0.224,0-0.406,0.183-0.406,0.407v0.383c0,0.13-0.105,0.235-0.235,0.235H5.694c-0.131,0-0.236-0.105-0.236-0.235v-0.383
		c0-0.225-0.183-0.407-0.406-0.407c-0.225,0-0.407,0.183-0.407,0.407v0.383C4.645,11.88,5.115,12.351,5.694,12.351z"/>
</g>
</svg>
