<?xml version="1.0" encoding="utf-8"?>
<!-- Generator: Adobe Illustrator 16.0.0, SVG Export Plug-In . SVG Version: 6.00 Build 0)  -->
<!DOCTYPE svg PUBLIC "-//W3C//DTD SVG 1.1//EN" "http://www.w3.org/Graphics/SVG/1.1/DTD/svg11.dtd">
<svg version="1.1" id="Capa_1" xmlns="http://www.w3.org/2000/svg" xmlns:xlink="http://www.w3.org/1999/xlink" x="0px" y="0px"
	 width="12.911px" height="16.213px" viewBox="0 0 12.911 16.213" enable-background="new 0 0 12.911 16.213" xml:space="preserve">
<g>
	<path fill="#5273BD" d="M8.964,0H0v16.213h12.911V3.946L8.964,0z M9.208,3.702V1.423l2.279,2.279H9.208z M12.076,4.535v10.844
		H0.833V0.834h7.541v3.701H12.076z"/>
	<path fill="#5273BD" d="M2.885,4.748h2.379c0.202,0,0.366-0.163,0.366-0.365S5.466,4.018,5.264,4.018H2.885
		c-0.201,0-0.365,0.163-0.365,0.365S2.684,4.748,2.885,4.748z"/>
	<path fill="#5273BD" d="M7.38,9.878H2.885c-0.201,0-0.365,0.163-0.365,0.365s0.164,0.366,0.365,0.366H7.38
		c0.202,0,0.365-0.164,0.365-0.366S7.583,9.878,7.38,9.878z"/>
	<path fill="#5273BD" d="M10.023,8.027h-1.85c-0.202,0-0.365,0.163-0.365,0.365s0.163,0.365,0.365,0.365h1.85
		c0.202,0,0.367-0.163,0.367-0.365S10.225,8.027,10.023,8.027z"/>
	<path fill="#5273BD" d="M2.885,6.907h1.322c0.209,0,0.365-0.216,0.365-0.409c0-0.202-0.163-0.365-0.365-0.365H2.885
		c-0.201,0-0.365,0.163-0.365,0.365C2.52,6.691,2.676,6.907,2.885,6.907z"/>
	<path fill="#5273BD" d="M6.485,6.498c0,0.193,0.157,0.409,0.366,0.409h1.852c0.209,0,0.364-0.216,0.364-0.409
		c0-0.202-0.163-0.365-0.364-0.365H6.851C6.649,6.133,6.485,6.296,6.485,6.498z"/>
	<path fill="#5273BD" d="M5.268,6.24c-0.066,0.07-0.104,0.165-0.104,0.258c0,0.073,0.027,0.22,0.109,0.307
		c0.07,0.065,0.163,0.103,0.256,0.103c0.095,0,0.188-0.037,0.263-0.107c0.075-0.081,0.104-0.228,0.104-0.302
		c0-0.094-0.038-0.188-0.106-0.261C5.658,6.109,5.409,6.103,5.268,6.24z"/>
	<path fill="#5273BD" d="M3.842,8.393c0,0.202,0.163,0.365,0.365,0.365h2.644c0.202,0,0.366-0.163,0.366-0.365
		S7.053,8.027,6.851,8.027H4.208C4.005,8.027,3.842,8.19,3.842,8.393z"/>
	<path fill="#5273BD" d="M2.885,8.758c0.096,0,0.189-0.038,0.261-0.107c0.067-0.07,0.105-0.164,0.105-0.258S3.213,8.205,3.144,8.134
		C3.014,8.003,2.76,8,2.625,8.135C2.557,8.205,2.52,8.297,2.52,8.393c0,0.094,0.038,0.188,0.107,0.261
		C2.698,8.721,2.792,8.758,2.885,8.758z"/>
	<path fill="#5273BD" d="M10.023,11.729h-1.85c-0.202,0-0.365,0.164-0.365,0.364c0,0.202,0.163,0.366,0.365,0.366h1.85
		c0.202,0,0.367-0.164,0.367-0.366C10.39,11.894,10.225,11.729,10.023,11.729z"/>
	<path fill="#5273BD" d="M6.851,11.729H4.208c-0.202,0-0.365,0.164-0.365,0.364c0,0.202,0.163,0.366,0.365,0.366h2.644
		c0.202,0,0.366-0.164,0.366-0.366C7.217,11.894,7.053,11.729,6.851,11.729z"/>
	<path fill="#5273BD" d="M2.626,11.835c-0.067,0.067-0.106,0.161-0.106,0.259c0,0.099,0.037,0.19,0.108,0.263
		c0.07,0.065,0.163,0.104,0.257,0.104c0.097,0,0.188-0.037,0.262-0.108c0.066-0.07,0.104-0.164,0.104-0.258
		c0-0.095-0.039-0.188-0.106-0.256C3.015,11.704,2.762,11.703,2.626,11.835z"/>
	<path fill="#5273BD" d="M10.023,6.907c0.096,0,0.189-0.037,0.26-0.105c0.079-0.079,0.107-0.225,0.107-0.304
		c0-0.097-0.039-0.192-0.108-0.261c-0.133-0.132-0.379-0.133-0.52,0.003c-0.066,0.07-0.104,0.165-0.104,0.258
		c0,0.073,0.028,0.22,0.109,0.307C9.837,6.87,9.93,6.907,10.023,6.907z"/>
	<path fill="#5273BD" d="M8.964,10.501c0.065-0.07,0.103-0.163,0.103-0.258c0-0.094-0.037-0.188-0.106-0.26
		c-0.133-0.131-0.385-0.133-0.52,0.002c-0.067,0.07-0.104,0.164-0.104,0.258s0.037,0.188,0.106,0.261
		c0.069,0.068,0.162,0.105,0.26,0.105C8.795,10.609,8.887,10.572,8.964,10.501z"/>
	<path fill="#5273BD" d="M9.763,9.985c-0.067,0.07-0.105,0.164-0.105,0.258s0.038,0.188,0.11,0.263
		c0.071,0.066,0.162,0.104,0.255,0.104c0.096,0,0.187-0.037,0.263-0.108c0.066-0.07,0.104-0.164,0.104-0.258
		s-0.038-0.188-0.107-0.259C10.152,9.853,9.898,9.851,9.763,9.985z"/>
</g>
</svg>
