<?xml version="1.0" encoding="utf-8"?>
<!-- Generator: Adobe Illustrator 16.0.0, SVG Export Plug-In . SVG Version: 6.00 Build 0)  -->
<!DOCTYPE svg PUBLIC "-//W3C//DTD SVG 1.1//EN" "http://www.w3.org/Graphics/SVG/1.1/DTD/svg11.dtd">
<svg version="1.1" id="Capa_1" xmlns="http://www.w3.org/2000/svg" xmlns:xlink="http://www.w3.org/1999/xlink" x="0px" y="0px"
	 width="14px" height="15.628px" viewBox="0 0 14 15.628" enable-background="new 0 0 14 15.628" xml:space="preserve">
<g>
	<path fill="#5273BD" d="M9.032,8.244c1.142-0.766,1.879-2.191,1.879-3.824C10.912,1.983,9.181,0,7.075,0S3.248,1.983,3.248,4.42
		c0,1.647,0.599,3.086,1.757,3.845C0.893,9.087,0,12.313,0,12.313v3.315h0.608h0.423H1v-3.269c0-0.362,1-3.288,6-3.383V8.975
		c0,0,0.154,0.001,0.211,0.002C12.078,9.071,13,11.997,13,12.359v3.269h1v-3.315C14,12.313,13.308,9.017,9.032,8.244z M4.09,4.42
		c0-1.968,1.332-3.568,2.969-3.568s2.969,1.601,2.969,3.568S8.695,7.988,7.059,7.988S4.09,6.388,4.09,4.42z"/>
</g>
</svg>
