<?xml version="1.0" encoding="utf-8"?>
<!-- Generator: Adobe Illustrator 16.0.0, SVG Export Plug-In . SVG Version: 6.00 Build 0)  -->
<!DOCTYPE svg PUBLIC "-//W3C//DTD SVG 1.1//EN" "http://www.w3.org/Graphics/SVG/1.1/DTD/svg11.dtd">
<svg version="1.1" id="Capa_1" xmlns="http://www.w3.org/2000/svg" xmlns:xlink="http://www.w3.org/1999/xlink" x="0px" y="0px"
	 width="14.815px" height="14.815px" viewBox="0 0 14.815 14.815" enable-background="new 0 0 14.815 14.815" xml:space="preserve">
<g>
	<path fill="#5273BD" d="M12.238,7.013c0.218-0.211,0.294-0.521,0.2-0.811S12.1,5.707,11.8,5.664L9.38,5.313
		C9.302,5.302,9.233,5.252,9.198,5.18L8.117,2.987c-0.135-0.271-0.407-0.44-0.709-0.44c-0.303,0-0.574,0.169-0.71,0.44L5.617,5.18
		C5.582,5.252,5.514,5.302,5.435,5.313l-2.42,0.352c-0.3,0.044-0.545,0.249-0.638,0.538s-0.017,0.6,0.2,0.811l1.75,1.706
		c0.058,0.056,0.084,0.137,0.07,0.215l-0.414,2.41c-0.05,0.299,0.07,0.595,0.315,0.772c0.137,0.1,0.297,0.152,0.464,0.152
		c0.127,0,0.255-0.032,0.368-0.092l2.164-1.138c0.069-0.036,0.156-0.036,0.226,0l2.164,1.138c0.264,0.139,0.59,0.115,0.833-0.061
		c0.244-0.179,0.365-0.475,0.314-0.772l-0.414-2.41c-0.014-0.079,0.012-0.158,0.07-0.214L12.238,7.013z M9.878,9.027l0.413,2.408
		c0.016,0.095-0.02,0.181-0.097,0.237c-0.076,0.056-0.172,0.063-0.255,0.019l-2.164-1.138c-0.112-0.059-0.239-0.09-0.367-0.09
		s-0.255,0.031-0.369,0.09l-2.163,1.138c-0.083,0.044-0.179,0.036-0.254-0.018c-0.078-0.058-0.113-0.144-0.097-0.237l0.413-2.409
		C4.982,8.771,4.897,8.509,4.71,8.326L2.96,6.62C2.893,6.555,2.869,6.462,2.898,6.372S3.001,6.22,3.094,6.207l2.419-0.353
		c0.258-0.036,0.48-0.197,0.596-0.432L7.19,3.23c0.042-0.086,0.121-0.135,0.218-0.135c0.095,0,0.174,0.05,0.217,0.135l1.082,2.191
		c0.114,0.234,0.337,0.396,0.595,0.433l2.42,0.353c0.094,0.013,0.166,0.075,0.195,0.165c0.028,0.09,0.006,0.183-0.061,0.248
		l-1.751,1.706C9.919,8.509,9.834,8.771,9.878,9.027z"/>
	<g>
		<path fill="#5273BD" d="M7.408,0C3.324,0,0,3.323,0,7.408c0,4.084,3.324,7.407,7.408,7.407c4.083,0,7.407-3.323,7.407-7.407
			C14.815,3.323,11.491,0,7.408,0L7.408,0z M7.408,14.245c-3.771,0-6.838-3.067-6.838-6.837c0-3.771,3.067-6.838,6.838-6.838
			c3.77,0,6.837,3.067,6.837,6.838C14.245,11.178,11.178,14.245,7.408,14.245L7.408,14.245z M7.408,14.245"/>
	</g>
</g>
</svg>
