<?xml version="1.0" encoding="utf-8"?>
<!-- Generator: Adobe Illustrator 16.0.0, SVG Export Plug-In . SVG Version: 6.00 Build 0)  -->
<!DOCTYPE svg PUBLIC "-//W3C//DTD SVG 1.1//EN" "http://www.w3.org/Graphics/SVG/1.1/DTD/svg11.dtd">
<svg version="1.1" id="Capa_1" xmlns="http://www.w3.org/2000/svg" xmlns:xlink="http://www.w3.org/1999/xlink" x="0px" y="0px"
	 width="14.814px" height="10.666px" viewBox="0 0 14.814 10.666" enable-background="new 0 0 14.814 10.666" xml:space="preserve">
<g>
	<path fill="#5273BD" d="M0,0v10.666h14.814V0H0z M9.033,5.416L7.696,6.759c-0.162,0.15-0.416,0.15-0.571,0.007l-1.343-1.35
		l0.012-0.012L0.896,0.492h13.027L9.021,5.404L9.033,5.416z M5.081,5.407L0.492,9.895V0.84L5.081,5.407z M5.427,5.757l1.356,1.361
		C6.957,7.279,7.18,7.361,7.404,7.361c0.228,0,0.455-0.083,0.634-0.25l1.349-1.354l4.52,4.42H0.906L5.427,5.757z M9.733,5.409
		l4.589-4.569v9.055L9.733,5.409z M9.733,5.409"/>
</g>
</svg>
