<?xml version="1.0" encoding="utf-8"?>
<!-- Generator: Adobe Illustrator 16.0.0, SVG Export Plug-In . SVG Version: 6.00 Build 0)  -->
<!DOCTYPE svg PUBLIC "-//W3C//DTD SVG 1.1//EN" "http://www.w3.org/Graphics/SVG/1.1/DTD/svg11.dtd">
<svg version="1.1" id="Capa_1" xmlns="http://www.w3.org/2000/svg" xmlns:xlink="http://www.w3.org/1999/xlink" x="0px" y="0px"
	 width="15.389px" height="15.39px" viewBox="0 0 15.389 15.39" enable-background="new 0 0 15.389 15.39" xml:space="preserve">
<g>
	<g>
		<path fill="#F4335E" d="M15.165,0.961l-0.736-0.736c-0.3-0.299-0.789-0.3-1.088,0.002l-0.807,0.806H0V15.39h14.353V2.862
			l0.079-0.08l0.733-0.732C15.464,1.751,15.464,1.262,15.165,0.961L15.165,0.961z M5.076,9.483l0.83,0.831l-1.143,0.312L5.076,9.483
			z M13.336,3.147l-1.093-1.095l0.364-0.364l1.094,1.094L13.336,3.147z M12.973,3.514l-6.57,6.568L5.309,8.987l6.569-6.568
			L12.973,3.514z M13.836,3.377v11.496H0.517V1.547h11.5L4.761,8.805L4.714,8.854l-0.549,2.008l-0.316,0.315
			c-0.101,0.101-0.101,0.265,0,0.365c0.05,0.051,0.117,0.075,0.183,0.075c0.064,0,0.132-0.024,0.182-0.075l0.316-0.316l2.008-0.548
			l6.914-6.914L13.836,3.377z M14.799,1.686l-0.732,0.733l-1.094-1.096l0.732-0.733c0.099-0.099,0.261-0.099,0.358,0l0.736,0.735
			C14.899,1.425,14.899,1.587,14.799,1.686L14.799,1.686z M14.799,1.686"/>
	</g>
</g>
</svg>
