<?xml version="1.0" encoding="utf-8"?>
<!-- Generator: Adobe Illustrator 16.0.0, SVG Export Plug-In . SVG Version: 6.00 Build 0)  -->
<!DOCTYPE svg PUBLIC "-//W3C//DTD SVG 1.1//EN" "http://www.w3.org/Graphics/SVG/1.1/DTD/svg11.dtd">
<svg version="1.1" id="Capa_1" xmlns="http://www.w3.org/2000/svg" xmlns:xlink="http://www.w3.org/1999/xlink" x="0px" y="0px"
	 width="18.963px" height="18.963px" viewBox="0 0 18.963 18.963" enable-background="new 0 0 18.963 18.963" xml:space="preserve">
<g>
	<g>
		<g>
			<g>
				<path fill="#EAA8B1" d="M9.484,18.962c-2.533,0-4.915-0.985-6.706-2.776S0.001,12.013,0,9.481c0-2.532,0.987-4.913,2.778-6.704
					C4.569,0.987,6.951,0,9.484,0s4.915,0.987,6.706,2.777c3.697,3.697,3.697,9.712,0,13.408
					C14.399,17.977,12.018,18.962,9.484,18.962z M9.484,0.886c-2.297,0-4.456,0.894-6.079,2.518
					C1.781,5.027,0.887,7.185,0.887,9.481s0.895,4.455,2.519,6.078c1.623,1.624,3.782,2.518,6.079,2.518
					c2.296,0,4.455-0.894,6.079-2.518c3.353-3.352,3.353-8.805,0.001-12.155C13.94,1.78,11.78,0.886,9.484,0.886z"/>
			</g>
		</g>
	</g>
	<g>
		<g>
			<path fill="#EAA8B1" d="M6.902,13.241c-0.016,0-0.031,0-0.048-0.002c-0.186-0.013-0.355-0.105-0.469-0.253l-1.433-1.878
				c-0.218-0.285-0.163-0.692,0.122-0.909c0.285-0.218,0.692-0.163,0.91,0.121l0.988,1.295l5.897-5.762
				c0.257-0.251,0.668-0.246,0.918,0.011c0.251,0.257,0.246,0.667-0.011,0.918l-6.423,6.274C7.234,13.175,7.071,13.241,6.902,13.241
				z"/>
		</g>
	</g>
</g>
</svg>
